<svg width="80" height="20" viewBox="0 0 80 20" fill="none" xmlns="http://www.w3.org/2000/svg">
<g clip-path="url(#clip0_2030_712)">
<path d="M31.1229 9.71241C31.4673 9.46522 31.7471 9.13876 31.9387 8.76061C32.1303 8.38246 32.228 7.96374 32.2236 7.53986C32.2236 5.89541 30.8876 4.70587 29.2432 4.70587H24.7059V15.2771H29.3896C31.1373 15.2771 32.5608 14 32.5608 12.2523C32.5661 11.7398 32.4358 11.235 32.1834 10.789C31.9309 10.343 31.565 9.97163 31.1229 9.71241ZM26.4393 6.44443H29.2497C29.5808 6.44062 29.8998 6.56849 30.1367 6.7999C30.3735 7.03132 30.5087 7.34733 30.5125 7.67842C30.5163 8.00951 30.3884 8.32855 30.157 8.56536C29.9256 8.80217 29.6096 8.93735 29.2785 8.94116H26.4393V6.44443ZM29.3896 13.5516H26.4393V10.6758H29.3896C29.7709 10.6758 30.1367 10.8273 30.4063 11.097C30.676 11.3666 30.8275 11.7324 30.8275 12.1137C30.8275 12.4951 30.676 12.8608 30.4063 13.1305C30.1367 13.4001 29.7709 13.5516 29.3896 13.5516Z" fill="white"/>
<path d="M38.3098 7.78827C37.7546 8.23554 37.3077 8.80264 37.0027 9.44709C36.068 9.59481 35.3491 10.3203 35.3491 11.3124V15.2772H33.6157V7.93597H35.3477V8.77258C35.6201 8.45684 35.9586 8.20496 36.3393 8.03484C36.72 7.86471 37.1335 7.78054 37.5504 7.78827H38.3098Z" fill="white"/>
<path d="M41.3098 7.78955C39.1804 7.78955 37.566 9.44838 37.566 11.6065C37.566 13.7647 39.2536 15.4235 41.4706 15.4235C42.6745 15.4235 43.702 14.9974 44.4079 14.2196L43.3059 13.119C42.8654 13.6039 42.1909 13.8536 41.485 13.8536C40.3987 13.8536 39.5765 13.2954 39.2837 12.3843H44.7451C44.7739 12.0915 44.8183 11.783 44.8183 11.5033C44.8183 9.31635 43.3948 7.78955 41.3098 7.78955ZM39.2536 11.034C39.4013 10.0209 40.2667 9.34511 41.2798 9.34511C42.2641 9.34511 43.0419 9.9987 43.1883 11.034H39.2536Z" fill="white"/>
<path d="M49.485 7.78955C47.3569 7.78955 45.7412 9.44838 45.7412 11.6065C45.7412 13.7647 47.4301 15.4235 49.6471 15.4235C50.851 15.4235 51.8785 14.9974 52.583 14.2196L51.4824 13.119C51.0419 13.6039 50.366 13.8536 49.6615 13.8536C48.5752 13.8536 47.753 13.2954 47.4589 12.3843H52.9203C52.9504 12.0915 52.9948 11.783 52.9948 11.5033C52.9948 9.31635 51.57 7.78955 49.485 7.78955ZM47.4301 11.034C47.5765 10.0209 48.4432 9.34511 49.4562 9.34511C50.4392 9.34511 51.2183 9.9987 51.3647 11.034H47.4301Z" fill="white"/>
<path d="M59.6314 13.6588V15.2745H53.5242V13.9817L53.6549 13.8131L57.0732 9.54773H53.6745C53.4366 8.93666 53.0671 8.38548 52.5922 7.93335H59.4039V9.21439L55.8366 13.6588H59.6314Z" fill="white"/>
<path d="M62.5282 7.93597H60.7961V15.2772H62.5282V7.93597Z" fill="white"/>
<path d="M61.668 4.7059C61.4626 4.70435 61.2613 4.76395 61.0899 4.87711C60.9184 4.99027 60.7845 5.15188 60.7052 5.34137C60.6259 5.53086 60.6047 5.73967 60.6444 5.94122C60.6841 6.14278 60.7828 6.32797 60.9281 6.47323C61.0734 6.61849 61.2586 6.71725 61.4601 6.75695C61.6617 6.79664 61.8705 6.77548 62.06 6.69615C62.2495 6.61682 62.4111 6.48291 62.5242 6.31146C62.6374 6.14001 62.697 5.93877 62.6954 5.73335C62.6944 5.46117 62.5858 5.20043 62.3933 5.00797C62.2009 4.81551 61.9402 4.70693 61.668 4.7059Z" fill="white"/>
<path d="M67.9923 7.78955C67.5806 7.78918 67.1732 7.87228 66.7947 8.03383C66.4161 8.19537 66.0742 8.432 65.7896 8.72942V7.93596H64.0576V15.2771H65.7896V11.3124C65.7896 10.153 66.574 9.41831 67.5661 9.41831C68.4903 9.41831 69.1347 9.99217 69.1347 11.2249V15.2771H70.8668V10.8575C70.8694 8.99348 69.6942 7.78955 67.9923 7.78955Z" fill="white"/>
<path d="M77.7046 7.93597V8.851C77.4226 8.52643 77.0756 8.2647 76.686 8.08276C76.2965 7.90081 75.873 7.80271 75.4431 7.7948C73.3438 7.7948 71.8026 9.51245 71.8026 11.6118C71.8026 13.7111 73.3438 15.4288 75.4431 15.4288C75.8762 15.4222 76.3027 15.3217 76.6932 15.1341C77.0836 14.9466 77.4287 14.6765 77.7046 14.3425V15.2575C77.7046 16.3595 76.9111 17.0196 75.5464 17.0196C74.7906 17.0155 74.0593 16.751 73.4758 16.2706L72.2719 17.4745C73.1386 18.268 74.3634 18.6641 75.5163 18.6641C77.9542 18.6641 79.4379 17.3281 79.4379 15.1347V7.94512L77.7046 7.93597ZM75.6131 13.6876C75.1994 13.6876 74.795 13.5649 74.4511 13.3351C74.1071 13.1053 73.8391 12.7787 73.6808 12.3965C73.5225 12.0143 73.481 11.5938 73.5617 11.1881C73.6425 10.7824 73.8417 10.4097 74.1342 10.1172C74.4267 9.82469 74.7993 9.62549 75.205 9.54479C75.6108 9.46409 76.0313 9.50551 76.4135 9.66381C76.7956 9.82211 77.1223 10.0902 77.3521 10.4341C77.5819 10.7781 77.7046 11.1824 77.7046 11.5961C77.7056 12.1504 77.4866 12.6824 77.0957 13.0753C76.7047 13.4681 76.1738 13.6898 75.6196 13.6915L75.6131 13.6876Z" fill="white"/>
</g>
<path fill-rule="evenodd" clip-rule="evenodd" d="M10.5882 4.70588V0L15.2941 4.70588V9.41177C14.046 9.41177 12.8491 8.91597 11.9666 8.03344C11.084 7.15092 10.5882 5.95396 10.5882 4.70588ZM4.70588 4.70589L0 9.41177H4.70588V9.41178C5.95396 9.41178 7.15092 8.91598 8.03345 8.03345C8.91597 7.15093 9.41177 5.95397 9.41177 4.70589H4.70588ZM4.70588 15.2941V15.2941V10.5882C5.95396 10.5882 7.15092 11.084 8.03345 11.9666C8.91597 12.8491 9.41177 14.046 9.41176 15.2941V20L4.7059 15.2941H4.70588ZM15.2941 15.2941V15.2941L20 10.5882H15.2941V10.5883C14.046 10.5883 12.8491 11.0841 11.9666 11.9666C11.084 12.8491 10.5882 14.0461 10.5882 15.2941H15.2941Z" fill="#FE5B00"/>
<defs>
<clipPath id="clip0_2030_712">
<rect width="54.7307" height="13.9477" fill="white" transform="translate(24.7059 4.70587)"/>
</clipPath>
</defs>
</svg>
