<svg width="80" height="20" viewBox="0 0 80 20" fill="none" xmlns="http://www.w3.org/2000/svg">
<g clip-path="url(#clip0_2030_1718)">
<path d="M31.123 9.71243C31.4674 9.46524 31.7472 9.13878 31.9388 8.76063C32.1304 8.38248 32.2281 7.96377 32.2237 7.53988C32.2237 5.89544 30.8877 4.70589 29.2433 4.70589H24.7061V15.2771H29.3897C31.1374 15.2771 32.561 14 32.561 12.2523C32.5662 11.7398 32.436 11.235 32.1835 10.789C31.931 10.343 31.5652 9.97165 31.123 9.71243ZM26.4394 6.44446H29.2498C29.5809 6.44064 29.9 6.56851 30.1368 6.79993C30.3736 7.03134 30.5088 7.34736 30.5126 7.67844C30.5164 8.00953 30.3885 8.32857 30.1571 8.56538C29.9257 8.80219 29.6097 8.93737 29.2786 8.94118H26.4394V6.44446ZM29.3897 13.5516H26.4394V10.6758H29.3897C29.7711 10.6758 30.1368 10.8273 30.4065 11.097C30.6761 11.3666 30.8276 11.7324 30.8276 12.1137C30.8276 12.4951 30.6761 12.8608 30.4065 13.1305C30.1368 13.4002 29.7711 13.5516 29.3897 13.5516Z" fill="#16161D"/>
<path d="M38.3098 7.78824C37.7546 8.23552 37.3077 8.80261 37.0027 9.44707C36.068 9.59478 35.3491 10.3203 35.3491 11.3124V15.2771H33.6157V7.93595H35.3477V8.77255C35.6201 8.45681 35.9586 8.20493 36.3393 8.03481C36.72 7.86469 37.1335 7.78051 37.5504 7.78824H38.3098Z" fill="#16161D"/>
<path d="M41.3102 7.78954C39.1808 7.78954 37.5664 9.44836 37.5664 11.6065C37.5664 13.7647 39.254 15.4235 41.471 15.4235C42.6749 15.4235 43.7024 14.9974 44.4082 14.2196L43.3063 13.119C42.8658 13.6039 42.1912 13.8536 41.4854 13.8536C40.3991 13.8536 39.5769 13.2954 39.2841 12.3843H44.7455C44.7743 12.0915 44.8187 11.783 44.8187 11.5033C44.8187 9.31634 43.3952 7.78954 41.3102 7.78954ZM39.254 11.034C39.4017 10.0209 40.2671 9.3451 41.2801 9.3451C42.2645 9.3451 43.0422 9.99869 43.1886 11.034H39.254Z" fill="#16161D"/>
<path d="M49.485 7.78954C47.3569 7.78954 45.7412 9.44836 45.7412 11.6065C45.7412 13.7647 47.4301 15.4235 49.6471 15.4235C50.851 15.4235 51.8785 14.9974 52.583 14.2196L51.4824 13.119C51.0419 13.6039 50.366 13.8536 49.6615 13.8536C48.5752 13.8536 47.753 13.2954 47.4589 12.3843H52.9203C52.9504 12.0915 52.9948 11.783 52.9948 11.5033C52.9948 9.31634 51.57 7.78954 49.485 7.78954ZM47.4301 11.034C47.5765 10.0209 48.4432 9.3451 49.4562 9.3451C50.4392 9.3451 51.2183 9.99869 51.3647 11.034H47.4301Z" fill="#16161D"/>
<path d="M59.6315 13.6588V15.2745H53.5243V13.9817L53.655 13.8131L57.0733 9.54771H53.6746C53.4368 8.93664 53.0672 8.38546 52.5923 7.93333H59.4041V9.21438L55.8367 13.6588H59.6315Z" fill="#16161D"/>
<path d="M62.5284 7.93595H60.7964V15.2771H62.5284V7.93595Z" fill="#16161D"/>
<path d="M61.6681 4.70588C61.4627 4.70433 61.2614 4.76393 61.09 4.87709C60.9185 4.99025 60.7846 5.15186 60.7053 5.34135C60.626 5.53084 60.6048 5.73965 60.6445 5.9412C60.6842 6.14276 60.783 6.32795 60.9282 6.47321C61.0735 6.61847 61.2587 6.71723 61.4602 6.75693C61.6618 6.79662 61.8706 6.77546 62.0601 6.69613C62.2496 6.6168 62.4112 6.48289 62.5243 6.31144C62.6375 6.13999 62.6971 5.93875 62.6955 5.73333C62.6945 5.46115 62.5859 5.20042 62.3935 5.00795C62.201 4.81549 61.9403 4.70691 61.6681 4.70588Z" fill="#16161D"/>
<path d="M67.9923 7.78954C67.5806 7.78917 67.1732 7.87227 66.7947 8.03382C66.4161 8.19536 66.0742 8.43199 65.7896 8.72941V7.93595H64.0576V15.2771H65.7896V11.3124C65.7896 10.1529 66.574 9.4183 67.5661 9.4183C68.4903 9.4183 69.1347 9.99216 69.1347 11.2248V15.2771H70.8668V10.8575C70.8694 8.99347 69.6942 7.78954 67.9923 7.78954Z" fill="#16161D"/>
<path d="M77.7047 7.93594V8.85098C77.4227 8.52641 77.0757 8.26468 76.6861 8.08273C76.2966 7.90079 75.8731 7.80269 75.4433 7.79477C73.3439 7.79477 71.8027 9.51242 71.8027 11.6118C71.8027 13.7111 73.3439 15.4288 75.4433 15.4288C75.8764 15.4222 76.3029 15.3216 76.6933 15.1341C77.0838 14.9465 77.4288 14.6764 77.7047 14.3425V15.2575C77.7047 16.3595 76.9112 17.0196 75.5465 17.0196C74.7907 17.0155 74.0595 16.7509 73.4759 16.2706L72.272 17.4745C73.1387 18.268 74.3635 18.6641 75.5164 18.6641C77.9544 18.6641 79.438 17.3281 79.438 15.1346V7.9451L77.7047 7.93594ZM75.6132 13.6876C75.1995 13.6876 74.7952 13.5649 74.4512 13.3351C74.1073 13.1053 73.8392 12.7786 73.6809 12.3965C73.5226 12.0143 73.4812 11.5938 73.5619 11.188C73.6426 10.7823 73.8418 10.4097 74.1343 10.1172C74.4268 9.82466 74.7995 9.62547 75.2052 9.54477C75.6109 9.46407 76.0314 9.50548 76.4136 9.66378C76.7958 9.82208 77.1224 10.0902 77.3522 10.4341C77.582 10.778 77.7047 11.1824 77.7047 11.5961C77.7057 12.1503 77.4867 12.6823 77.0958 13.0752C76.7049 13.4681 76.174 13.6898 75.6197 13.6915L75.6132 13.6876Z" fill="#16161D"/>
</g>
<rect width="20" height="20" fill="white"/>
<path fill-rule="evenodd" clip-rule="evenodd" d="M10.5882 4.70588V0L15.2941 4.70588V9.41177C14.046 9.41177 12.8491 8.91597 11.9666 8.03344C11.084 7.15092 10.5882 5.95396 10.5882 4.70588ZM0 9.41177H4.70588C5.95396 9.41177 7.15092 8.91597 8.03345 8.03345C8.91597 7.15092 9.41177 5.95396 9.41177 4.70588H4.70588L0 9.41177ZM4.70588 15.2941V10.5882C5.95396 10.5882 7.15092 11.084 8.03345 11.9666C8.91597 12.8491 9.41177 14.046 9.41177 15.2941V20L4.70588 15.2941ZM15.2941 15.2941H10.5882C10.5882 14.046 11.084 12.8491 11.9666 11.9666C12.8491 11.084 14.046 10.5882 15.2941 10.5882H20L15.2941 15.2941Z" fill="#FE5B00"/>
<defs>
<clipPath id="clip0_2030_1718">
<rect width="54.7307" height="13.9477" fill="white" transform="translate(24.7061 4.70588)"/>
</clipPath>
</defs>
</svg>
