<svg width="19" height="18" viewBox="0 0 19 18" fill="none" xmlns="http://www.w3.org/2000/svg">
<path d="M12.9502 1.5H5.4502C3.37913 1.5 1.7002 3.17893 1.7002 5.25V12.75C1.7002 14.8211 3.37913 16.5 5.4502 16.5H12.9502C15.0213 16.5 16.7002 14.8211 16.7002 12.75V5.25C16.7002 3.17893 15.0213 1.5 12.9502 1.5Z" stroke="white" stroke-linecap="round" stroke-linejoin="round"/>
<path d="M12.2 8.5275C12.2925 9.15169 12.1859 9.78916 11.8953 10.3493C11.6047 10.9094 11.1448 11.3636 10.5812 11.6473C10.0176 11.931 9.37881 12.0297 8.75582 11.9295C8.13282 11.8292 7.5573 11.5351 7.1111 11.0889C6.66491 10.6427 6.37077 10.0672 6.27053 9.44416C6.17028 8.82117 6.26902 8.18242 6.55272 7.61878C6.83642 7.05514 7.29062 6.59531 7.85071 6.30468C8.41081 6.01406 9.04829 5.90744 9.67248 6C10.3092 6.09441 10.8986 6.3911 11.3537 6.84623C11.8089 7.30136 12.1056 7.89081 12.2 8.5275Z" stroke="white" stroke-linecap="round" stroke-linejoin="round"/>
<path d="M13.3252 4.875H13.3327" stroke="white" stroke-width="1.5" stroke-linecap="round" stroke-linejoin="round"/>
</svg>
