<svg width="35" height="35" viewBox="0 0 35 35" fill="none" xmlns="http://www.w3.org/2000/svg">
<path d="M18.1996 10.6993C18.1217 10.7001 18.0443 10.6856 17.972 10.6565C17.8996 10.6275 17.8337 10.5845 17.778 10.5299C17.7223 10.4754 17.6778 10.4104 17.6472 10.3387C17.6166 10.267 17.6004 10.19 17.5996 10.1121C17.5996 7.84005 19.4812 6.00005 21.798 6.00005C21.876 5.999 21.9535 6.01337 22.0259 6.04235C22.0983 6.07133 22.1643 6.11434 22.2201 6.1689C22.2759 6.22347 22.3203 6.28853 22.3508 6.36032C22.3813 6.43212 22.3974 6.50924 22.398 6.58725C22.398 8.85925 20.518 10.6993 18.1996 10.6993Z" fill="white"/>
<path d="M18.2 10.6993C18.122 10.7001 18.0447 10.6856 17.9723 10.6565C17.9 10.6275 17.8341 10.5845 17.7784 10.5299C17.7227 10.4754 17.6782 10.4104 17.6476 10.3387C17.617 10.267 17.6008 10.19 17.6 10.1121C17.6 7.84005 19.4816 6.00005 21.7984 6.00005C21.8764 5.999 21.9539 6.01337 22.0263 6.04235C22.0987 6.07133 22.1647 6.11434 22.2205 6.1689C22.2762 6.22347 22.3207 6.28853 22.3512 6.36032C22.3817 6.43212 22.3978 6.50924 22.3984 6.58725C22.3984 8.85925 20.5184 10.6993 18.2 10.6993ZM26.96 23.0689C27.192 23.2385 27.2672 23.5489 27.136 23.8017C25.024 27.9393 23.3392 30.0001 21.8 30.0001C21.0832 30.0001 20.3792 29.7729 19.6928 29.3313C19.2001 29.015 18.6296 28.841 18.0443 28.8286C17.459 28.8161 16.8816 28.9657 16.376 29.2609C15.544 29.7489 14.752 30.0001 14 30.0001C11.736 30.0001 8 23.1729 8 19.4273C8 15.4273 10.1424 12.3777 13.4 12.3777C14.9328 12.3777 16.256 12.5985 17.368 13.0481C17.8384 13.2369 18.3712 13.2241 18.8304 13.0081C19.7328 12.5825 20.9232 12.3777 22.3984 12.3777C24.2016 12.3777 25.7744 13.2577 27.08 14.9617C27.1272 15.0231 27.1616 15.0934 27.1812 15.1684C27.2008 15.2434 27.2051 15.3215 27.1939 15.3982C27.1827 15.4749 27.1562 15.5486 27.1161 15.6149C27.0759 15.6811 27.0228 15.7387 26.96 15.7841C25.5024 16.8561 24.8 18.0577 24.8 19.4273C24.8 20.7953 25.5024 21.9985 26.96 23.0689Z" fill="white"/>
<path d="M26.96 23.0662C27.192 23.2358 27.2672 23.5462 27.136 23.799C25.024 27.9366 23.3392 29.9974 21.8 29.9974C21.0832 29.9974 20.3792 29.7702 19.6928 29.3286C19.2001 29.0123 18.6296 28.8383 18.0443 28.8259C17.459 28.8135 16.8816 28.9631 16.376 29.2582C15.544 29.7462 14.752 29.9974 14 29.9974C11.736 29.9974 8 23.1702 8 19.4246C8 15.4246 10.1424 12.375 13.4 12.375C14.9328 12.375 16.256 12.5958 17.368 13.0454C17.8384 13.2342 18.3712 13.2214 18.8304 13.0054C19.7328 12.5798 20.9232 12.375 22.3984 12.375C24.2016 12.375 25.7744 13.255 27.08 14.959C27.1272 15.0204 27.1616 15.0908 27.1812 15.1657C27.2008 15.2407 27.2051 15.3189 27.1939 15.3956C27.1827 15.4723 27.1562 15.5459 27.1161 15.6122C27.0759 15.6785 27.0228 15.736 26.96 15.7814C25.5024 16.8534 24.8 18.055 24.8 19.4246C24.8 20.7926 25.5024 21.9958 26.96 23.0662Z" fill="white"/>
</svg>
