<svg width="35" height="35" viewBox="0 0 35 35" fill="none" xmlns="http://www.w3.org/2000/svg">
<path fill-rule="evenodd" clip-rule="evenodd" d="M26.896 8H9.104C8.494 8 8 8.494 8 9.104V26.896C8 27.506 8.494 28 9.104 28H18.682V20.255H16.076V17.237H18.682V15.01C18.682 12.426 20.26 11.02 22.565 11.02C23.669 11.02 24.617 11.102 24.894 11.139V13.839H23.296C22.042 13.839 21.8 14.435 21.8 15.309V17.236H24.789L24.399 20.254H21.799V28H26.896C27.506 28 28 27.506 28 26.896V9.104C28 8.494 27.506 8 26.896 8Z" fill="white"/>
</svg>
