<svg width="35" height="35" viewBox="0 0 35 35" fill="none" xmlns="http://www.w3.org/2000/svg">
<path d="M18 15C17.2044 15 16.4413 15.3161 15.8787 15.8787C15.3161 16.4413 15 17.2044 15 18C15 18.7956 15.3161 19.5587 15.8787 20.1213C16.4413 20.6839 17.2044 21 18 21C18.7956 21 19.5587 20.6839 20.1213 20.1213C20.6839 19.5587 21 18.7956 21 18C21 17.2044 20.6839 16.4413 20.1213 15.8787C19.5587 15.3161 18.7956 15 18 15Z" fill="white"/>
<path fill-rule="evenodd" clip-rule="evenodd" d="M14 8C12.4087 8 10.8826 8.63214 9.75736 9.75736C8.63214 10.8826 8 12.4087 8 14V22C8 23.5913 8.63214 25.1174 9.75736 26.2426C10.8826 27.3679 12.4087 28 14 28H22C23.5913 28 25.1174 27.3679 26.2426 26.2426C27.3679 25.1174 28 23.5913 28 22V14C28 12.4087 27.3679 10.8826 26.2426 9.75736C25.1174 8.63214 23.5913 8 22 8H14ZM13.3333 18C13.3333 16.7623 13.825 15.5753 14.7002 14.7002C15.5753 13.825 16.7623 13.3333 18 13.3333C19.2377 13.3333 20.4247 13.825 21.2998 14.7002C22.175 15.5753 22.6667 16.7623 22.6667 18C22.6667 19.2377 22.175 20.4247 21.2998 21.2998C20.4247 22.175 19.2377 22.6667 18 22.6667C16.7623 22.6667 15.5753 22.175 14.7002 21.2998C13.825 20.4247 13.3333 19.2377 13.3333 18ZM22.6667 13.3333H24V12H22.6667V13.3333Z" fill="white"/>
</svg>
