<svg width="41" height="41" viewBox="0 0 41 41" fill="none" xmlns="http://www.w3.org/2000/svg">
<path d="M20.5 0C9.225 0 0 9.225 0 20.5C0 31.775 9.225 41 20.5 41C31.775 41 41 31.775 41 20.5C41 9.225 31.775 0 20.5 0ZM29.9812 29.4688C29.725 29.9813 28.7 30.2375 28.1875 29.9812C22.8062 26.9062 16.1437 26.1375 10.25 27.9312C9.48125 27.9312 8.96875 27.675 8.7125 26.9062C8.7125 26.3937 8.96875 25.625 9.7375 25.3687C16.4 23.3187 23.575 24.3438 29.725 27.675C29.9813 28.1875 30.2375 28.9562 29.9812 29.4688ZM32.5438 24.0875C32.2875 24.0875 32.2875 24.0875 32.5438 24.0875C32.0312 24.8562 31.0063 25.1125 30.2375 24.6C24.0875 21.0125 16.6562 20.2437 9.7375 22.2937C8.96875 22.55 7.94375 22.0375 7.6875 21.2688C7.43125 20.2437 7.94375 19.475 8.7125 18.9625C16.4 16.6562 24.8562 17.6812 31.775 21.7812C32.5438 22.2938 32.8 23.3187 32.5438 24.0875ZM32.5438 18.1938C25.8813 14.35 15.1188 13.8375 8.7125 15.8875C7.6875 16.1437 6.6625 15.6312 6.40625 14.6062C6.15 13.5812 6.6625 12.5562 7.6875 12.0437C14.8625 9.99375 26.9062 10.25 34.5938 14.8625C35.6188 15.375 35.875 16.6562 35.3625 17.425C34.5938 18.45 33.5687 18.7063 32.5438 18.1938Z" fill="white"/>
</svg>
