<svg width="35" height="35" viewBox="0 0 35 35" fill="none" xmlns="http://www.w3.org/2000/svg">
<path d="M3.54667 23.6213C3.612 23.6213 3.66667 23.5693 3.67733 23.4973L4.03733 20.8013L3.67733 18.0427C3.67412 18.0095 3.65895 17.9786 3.63467 17.9558C3.61038 17.933 3.57863 17.9198 3.54533 17.9187C3.47867 17.9187 3.42 17.972 3.412 18.0427L3.09733 20.8013L3.412 23.496C3.42 23.5693 3.48 23.6213 3.54667 23.6213ZM2.36267 22.596C2.42667 22.596 2.48 22.548 2.48933 22.476L2.768 20.8013L2.48933 19.0947C2.48 19.024 2.42667 18.9747 2.36267 18.9747C2.29467 18.9747 2.24267 19.024 2.232 19.0947L2 20.8013L2.232 22.476C2.24267 22.5467 2.29467 22.596 2.36267 22.596ZM4.96 17.5293C4.95732 17.4885 4.93937 17.4502 4.90972 17.422C4.88007 17.3939 4.84089 17.3779 4.8 17.3773C4.75915 17.3776 4.71995 17.3935 4.69045 17.4218C4.66095 17.4501 4.64338 17.4885 4.64133 17.5293L4.34267 20.8013L4.64133 23.9533C4.64404 23.9939 4.66209 24.0319 4.69181 24.0596C4.72152 24.0874 4.76068 24.1028 4.80133 24.1027C4.84211 24.1024 4.88127 24.0867 4.91096 24.0588C4.94064 24.0308 4.95864 23.9927 4.96133 23.952L5.3 20.8013L4.96 17.5293ZM6.06933 24.2293C6.11677 24.2285 6.16218 24.21 6.1967 24.1774C6.23121 24.1449 6.25236 24.1006 6.256 24.0533L6.57733 20.8013L6.25733 17.4387C6.25367 17.3911 6.23234 17.3467 6.19754 17.3141C6.16274 17.2816 6.117 17.2632 6.06933 17.2627C6.0214 17.2626 5.97528 17.281 5.94053 17.314C5.90578 17.347 5.88506 17.3921 5.88267 17.44L5.59867 20.8013L5.88133 24.0533C5.88374 24.1014 5.90465 24.1467 5.93968 24.1798C5.97472 24.2128 6.02117 24.2297 6.06933 24.2293ZM7.34667 24.2827C7.40172 24.2828 7.45473 24.2619 7.49487 24.2242C7.53502 24.1865 7.55927 24.1349 7.56267 24.08L7.864 20.8013L7.56267 17.6813C7.55894 17.6266 7.53455 17.5754 7.49444 17.538C7.45433 17.5006 7.4015 17.4799 7.34667 17.48C7.29189 17.4799 7.23918 17.5009 7.19947 17.5387C7.15975 17.5764 7.13607 17.628 7.13333 17.6827L6.86667 20.8027L7.13333 24.08C7.13607 24.1347 7.15975 24.1863 7.19947 24.224C7.23918 24.2617 7.29189 24.2827 7.34667 24.2827ZM9.16 20.8027L8.87733 15.7293C8.87362 15.6673 8.84651 15.609 8.80146 15.5662C8.75642 15.5234 8.69681 15.4992 8.63467 15.4987C8.57243 15.4989 8.51264 15.5229 8.46753 15.5658C8.42242 15.6087 8.3954 15.6672 8.392 15.7293L8.14133 20.8027L8.392 24.08C8.3983 24.14 8.42658 24.1955 8.47139 24.2358C8.5162 24.2762 8.57436 24.2985 8.63467 24.2985C8.69497 24.2985 8.75314 24.2762 8.79795 24.2358C8.84276 24.1955 8.87104 24.14 8.87733 24.08L9.16 20.8027ZM9.93467 24.316C10.0037 24.3161 10.0701 24.2895 10.1201 24.2418C10.17 24.1941 10.1996 24.129 10.2027 24.06V24.0627L10.468 20.804L10.2027 14.5693C10.1979 14.501 10.1673 14.437 10.1172 14.3903C10.0671 14.3436 10.0012 14.3177 9.93267 14.3177C9.86417 14.3177 9.79822 14.3436 9.74811 14.3903C9.69801 14.437 9.66747 14.501 9.66267 14.5693L9.43067 20.804L9.664 24.0613C9.66778 24.1303 9.69803 24.1951 9.74846 24.2423C9.79889 24.2895 9.8656 24.3168 9.93467 24.316ZM11.2413 13.768C11.1649 13.7676 11.0912 13.7968 11.0358 13.8495C10.9803 13.9022 10.9474 13.9743 10.944 14.0507L10.728 20.804L10.944 24.028C10.9475 24.1043 10.9804 24.1762 11.0358 24.2287C11.0913 24.2812 11.165 24.3101 11.2413 24.3093C11.3178 24.3104 11.3916 24.2817 11.4472 24.2291C11.5027 24.1766 11.5355 24.1044 11.5387 24.028L11.7853 20.804L11.5387 14.0507C11.5359 13.974 11.5032 13.9015 11.4476 13.8487C11.3921 13.7959 11.318 13.7669 11.2413 13.768ZM12.56 24.316C12.644 24.3174 12.7251 24.2858 12.786 24.228C12.8469 24.1701 12.8825 24.0906 12.8853 24.0067V24.0093L13.112 20.804L12.8853 13.824C12.8825 13.7403 12.8471 13.661 12.7865 13.6032C12.7259 13.5454 12.6451 13.5136 12.5613 13.5147C12.4774 13.5129 12.3962 13.5444 12.3354 13.6024C12.2747 13.6604 12.2394 13.7401 12.2373 13.824L12.0333 20.804L12.2373 24.0093C12.24 24.1813 12.3827 24.316 12.56 24.316ZM13.8907 24.3133C13.9815 24.3144 14.0691 24.2798 14.1347 24.217C14.2002 24.1542 14.2385 24.0681 14.2413 23.9773V23.98L14.4507 20.8053L14.2413 14.0013C14.2379 13.911 14.1993 13.8256 14.1338 13.7634C14.0683 13.7011 13.981 13.6669 13.8907 13.668C13.8001 13.6665 13.7125 13.7006 13.6467 13.7629C13.5809 13.8252 13.5421 13.9108 13.5387 14.0013L13.3547 20.8053L13.54 23.9787C13.544 24.1653 13.6987 24.312 13.8907 24.312V24.3133ZM15.7987 20.8053L15.6093 14.2493C15.6059 14.1517 15.5643 14.0594 15.4935 13.9921C15.4227 13.9248 15.3283 13.8879 15.2307 13.8893C15.1326 13.8875 15.0377 13.9244 14.9666 13.9921C14.8954 14.0597 14.8538 14.1526 14.8507 14.2507L14.6813 20.8053L14.8507 23.96C14.8541 24.0578 14.8959 24.1504 14.967 24.2178C15.0381 24.2851 15.1328 24.3218 15.2307 24.32C15.329 24.3214 15.4239 24.284 15.4948 24.2159C15.5657 24.1477 15.6069 24.0543 15.6093 23.956V23.96L15.7987 20.8053ZM16.58 24.3253C16.8 24.3253 16.9813 24.152 16.9853 23.9387L17.1573 20.8067L16.9853 13.0067C16.9819 12.9019 16.9375 12.8026 16.8617 12.7301C16.786 12.6575 16.6849 12.6176 16.58 12.6187C16.4751 12.6179 16.374 12.6579 16.2981 12.7304C16.2222 12.8028 16.1775 12.9019 16.1733 13.0067L16.02 20.804L16.1733 23.94C16.1773 24.1507 16.36 24.3253 16.58 24.3253ZM17.9253 11.8853C17.813 11.8835 17.7045 11.9258 17.623 12.003C17.5415 12.0803 17.4935 12.1864 17.4893 12.2987L17.312 20.808L17.4907 23.8947C17.4948 24.0062 17.5425 24.1116 17.6235 24.1884C17.7046 24.2652 17.8124 24.3072 17.924 24.3053C18.036 24.3068 18.1441 24.2641 18.225 24.1865C18.3058 24.1089 18.3529 24.0027 18.356 23.8907V23.8947L18.5507 20.808L18.356 12.3C18.3529 12.1882 18.306 12.0822 18.2254 12.0046C18.1449 11.9271 18.0371 11.8842 17.9253 11.8853ZM19.1547 24.328L30.0627 24.3333C32.2373 24.3333 34 22.6427 34 20.556C34 18.4707 32.2373 16.78 30.0627 16.78C29.524 16.78 29.0093 16.8853 28.54 17.0733C28.2293 13.6707 25.2533 11 21.624 11C20.7373 11 19.872 11.168 19.108 11.452C18.8107 11.5627 18.7307 11.676 18.728 11.896V23.8813C18.7322 23.9951 18.7779 24.1034 18.8565 24.1857C18.9352 24.268 19.0412 24.3186 19.1547 24.328Z" fill="white"/>
</svg>
