<svg width="35" height="35" viewBox="0 0 35 35" fill="none" xmlns="http://www.w3.org/2000/svg">
<path d="M18 7C11.95 7 7 11.95 7 18C7 24.05 11.95 29 18 29C24.05 29 29 24.05 29 18C29 11.95 24.05 7 18 7ZM23.0875 22.8125C22.95 23.0875 22.4 23.225 22.125 23.0875C19.2375 21.4375 15.6625 21.025 12.5 21.9875C12.0875 21.9875 11.8125 21.85 11.675 21.4375C11.675 21.1625 11.8125 20.75 12.225 20.6125C15.8 19.5125 19.65 20.0625 22.95 21.85C23.0875 22.125 23.225 22.5375 23.0875 22.8125ZM24.4625 19.925C24.325 19.925 24.325 19.925 24.4625 19.925C24.1875 20.3375 23.6375 20.475 23.225 20.2C19.925 18.275 15.9375 17.8625 12.225 18.9625C11.8125 19.1 11.2625 18.825 11.125 18.4125C10.9875 17.8625 11.2625 17.45 11.675 17.175C15.8 15.9375 20.3375 16.4875 24.05 18.6875C24.4625 18.9625 24.6 19.5125 24.4625 19.925ZM24.4625 16.7625C20.8875 14.7 15.1125 14.425 11.675 15.525C11.125 15.6625 10.575 15.3875 10.4375 14.8375C10.3 14.2875 10.575 13.7375 11.125 13.4625C14.975 12.3625 21.4375 12.5 25.5625 14.975C26.1125 15.25 26.25 15.9375 25.975 16.35C25.5625 16.9 25.0125 17.0375 24.4625 16.7625Z" fill="white"/>
</svg>
