<svg width="35" height="35" viewBox="0 0 35 35" fill="none" xmlns="http://www.w3.org/2000/svg">
<path d="M30 10.3165C29.1015 10.7139 28.1487 10.9751 27.1731 11.0912C28.201 10.4756 28.9701 9.50729 29.3371 8.3667C28.3717 8.94127 27.3132 9.34394 26.2111 9.56175C25.4701 8.76887 24.4879 8.24303 23.4171 8.06598C22.3464 7.88892 21.2472 8.07057 20.2903 8.5827C19.3335 9.09482 18.5727 9.90871 18.1261 10.8979C17.6796 11.887 17.5723 12.996 17.821 14.0523C15.863 13.9544 13.9474 13.4457 12.1987 12.5592C10.45 11.6728 8.90727 10.4285 7.67072 8.90712C7.23307 9.65883 7.00309 10.5134 7.00432 11.3832C7.00432 13.0904 7.87441 14.5986 9.19427 15.4817C8.4125 15.457 7.64794 15.2459 6.96429 14.8659V14.926C6.96425 16.0632 7.35757 17.1654 8.07755 18.0457C8.79752 18.9259 9.79982 19.5301 10.9144 19.7556C10.1887 19.9525 9.42774 19.9815 8.68917 19.8404C9.00344 20.8193 9.61603 21.6753 10.4411 22.2887C11.2662 22.902 12.2625 23.2419 13.2904 23.2607C12.2689 24.0631 11.0992 24.6562 9.8482 25.0061C8.59725 25.356 7.28959 25.4559 6 25.3C8.25085 26.7474 10.871 27.5159 13.5471 27.5135C22.606 27.5135 27.5581 20.0099 27.5581 13.5025C27.5581 13.2906 27.5534 13.0763 27.544 12.8655C28.5075 12.1689 29.3392 11.305 30 10.3165Z" fill="white"/>
</svg>
