<svg width="35" height="35" viewBox="0 0 35 35" fill="none" xmlns="http://www.w3.org/2000/svg">
<path d="M18.0773 9H18.2108C19.4438 9.0045 25.6917 9.0495 27.3763 9.50253C27.8856 9.64079 28.3497 9.91029 28.7222 10.2841C29.0946 10.6579 29.3625 11.1229 29.499 11.6327C29.6505 12.2027 29.757 12.9572 29.829 13.7358L29.844 13.8918L29.877 14.2818L29.889 14.4378C29.9865 15.8089 29.9985 17.093 30 17.3735V17.486C29.9985 17.777 29.985 19.1481 29.877 20.5762L29.865 20.7337L29.8515 20.8897C29.7765 21.7478 29.6655 22.5999 29.499 23.2269C29.3629 23.7369 29.0952 24.2021 28.7227 24.576C28.3501 24.9498 27.8858 25.2192 27.3763 25.357C25.6362 25.8251 19.0223 25.8581 18.1058 25.8596H17.8927C17.4292 25.8596 15.5121 25.8506 13.502 25.7815L13.247 25.7726L13.1164 25.7665L12.8599 25.756L12.6034 25.7455C10.9383 25.672 9.35271 25.5535 8.62216 25.3555C8.11287 25.2178 7.6487 24.9487 7.27617 24.5751C6.90363 24.2015 6.63581 23.7366 6.49953 23.2269C6.33302 22.6014 6.22201 21.7478 6.14701 20.8897L6.13501 20.7322L6.12301 20.5762C6.04897 19.5598 6.00795 18.5412 6 17.522L6 17.3375C6.003 17.015 6.015 15.9004 6.09601 14.6704L6.10651 14.5158L6.11101 14.4378L6.12301 14.2818L6.15601 13.8918L6.17101 13.7358C6.24302 12.9572 6.34952 12.2012 6.50103 11.6327C6.63708 11.1227 6.9048 10.6575 7.27735 10.2836C7.6499 9.90974 8.11419 9.64038 8.62366 9.50253C9.35421 9.30752 10.9398 9.18751 12.6049 9.11251L12.8599 9.10201L13.1179 9.09301L13.247 9.08851L13.5035 9.07801C14.9311 9.03206 16.3594 9.00656 17.7877 9.0015H18.0773V9ZM15.6006 13.8153V21.0428L21.8365 17.4305L15.6006 13.8153Z" fill="white"/>
</svg>
