<svg width="20" height="24" viewBox="0 0 20 24" fill="none" xmlns="http://www.w3.org/2000/svg">
<g clip-path="url(#clip0_11455_360)">
<path fill-rule="evenodd" clip-rule="evenodd" d="M-0.00195312 2H19.998V22H-0.00195312V2Z" fill="white"/>
<path fill-rule="evenodd" clip-rule="evenodd" d="M0.87791 20.4379H0.820739C0.820739 20.4093 0.806421 20.3664 0.806421 20.352C0.806421 20.3377 0.806421 20.3092 0.763465 20.3092H0.677553V20.4379H0.634597V20.1374H0.763465C0.820739 20.1374 0.863592 20.1518 0.863592 20.2089C0.863592 20.2518 0.849273 20.2663 0.835058 20.2804C0.849377 20.2948 0.863592 20.3091 0.863592 20.3377V20.3949C0.863592 20.4093 0.863592 20.4093 0.87791 20.4093V20.4379ZM0.820739 20.2233C0.820739 20.1803 0.792102 20.1803 0.777784 20.1803H0.677553V20.2663H0.763465C0.792102 20.2663 0.820739 20.2518 0.820739 20.2233ZM1.06405 20.2805C1.06405 20.1089 0.92097 19.9656 0.734828 19.9656C0.563108 19.9656 0.419922 20.1089 0.419922 20.2805C0.419922 20.4665 0.563108 20.6098 0.734828 20.6098C0.920866 20.6097 1.06405 20.4665 1.06405 20.2805ZM1.0211 20.2805C1.0211 20.438 0.892333 20.5524 0.734828 20.5524C0.577323 20.5524 0.462878 20.4379 0.462878 20.2805C0.462878 20.1374 0.577427 20.0085 0.734828 20.0085C0.892229 20.0085 1.0211 20.1374 1.0211 20.2805ZM18.6552 14.4979C18.6552 14.9274 18.3833 15.1275 17.8965 15.1275H16.9663V14.6981H17.8965C17.9824 14.6981 18.054 14.6839 18.0828 14.6553C18.1113 14.6266 18.1399 14.5836 18.1399 14.5265C18.1399 14.4691 18.1114 14.4119 18.0828 14.3834C18.054 14.3546 17.9969 14.3404 17.9109 14.3404C17.4674 14.326 16.9091 14.3546 16.9091 13.7249C16.9091 13.4386 17.0951 13.1237 17.596 13.1237H18.555V13.5531H17.6675C17.5818 13.5531 17.5244 13.5531 17.4815 13.5816C17.4385 13.6246 17.41 13.6676 17.41 13.7391C17.41 13.8107 17.453 13.8537 17.5101 13.8824C17.5675 13.8967 17.6248 13.911 17.6964 13.911H17.9539C18.2259 13.911 18.3977 13.9681 18.5122 14.0685C18.5979 14.1686 18.6552 14.2976 18.6552 14.4979ZM16.637 14.0685C16.5225 13.9681 16.3506 13.911 16.0787 13.911H15.8212C15.7497 13.911 15.6923 13.8965 15.6351 13.8824C15.5777 13.8537 15.535 13.8107 15.535 13.7391C15.535 13.6676 15.5492 13.6246 15.6065 13.5816C15.6494 13.5531 15.7066 13.5531 15.7925 13.5531H16.68V13.1237H15.721C15.2057 13.1237 15.0338 13.4386 15.0338 13.7249C15.0338 14.3545 15.5922 14.326 16.0359 14.3404C16.1216 14.3404 16.179 14.3546 16.2075 14.3834C16.2361 14.4119 16.2649 14.4691 16.2649 14.5265C16.2649 14.5836 16.2362 14.6266 16.2075 14.6553C16.1646 14.6839 16.1074 14.6981 16.0215 14.6981H15.0911V15.1275H16.0215C16.508 15.1275 16.7801 14.9273 16.7801 14.4979C16.7801 14.2976 16.7229 14.1686 16.637 14.0685ZM14.8048 14.7126H13.6743V14.3118H14.7763V13.9112H13.6743V13.5389H14.8048V13.1239H13.2019V15.1276H14.8048V14.7126ZM12.6865 13.2241C12.529 13.1382 12.343 13.1238 12.0997 13.1238H10.9976V15.1275H11.4842V14.3976H11.9995C12.1712 14.3976 12.2715 14.412 12.3431 14.4835C12.429 14.5836 12.429 14.7555 12.429 14.8843V15.1275H12.9012V14.741C12.9012 14.555 12.887 14.4691 12.8297 14.369C12.7867 14.3116 12.701 14.2401 12.5865 14.1971C12.7152 14.1544 12.93 13.9826 12.93 13.6676C12.9299 13.4387 12.844 13.3098 12.6865 13.2241ZM9.96702 13.1238H8.43544L7.81995 13.7822L7.23309 13.1238H5.30081V15.1275H7.20456L7.82005 14.4691L8.40691 15.1275H9.33731V14.455H9.93848C10.3535 14.455 10.7688 14.3404 10.7688 13.7822C10.7687 13.2383 10.3392 13.1238 9.96702 13.1238ZM12.3 13.954C12.2285 13.9826 12.1569 13.9826 12.071 13.9826L11.4842 13.997V13.5388H12.071C12.1569 13.5388 12.2428 13.5388 12.3 13.5817C12.3574 13.6105 12.4001 13.6677 12.4001 13.7536C12.4001 13.8395 12.3574 13.9111 12.3 13.954ZM9.96702 14.0542H9.3372V13.5388H9.96702C10.1388 13.5388 10.2533 13.6105 10.2533 13.7822C10.2533 13.954 10.1387 14.0542 9.96702 14.0542ZM8.12054 14.1256L8.86479 13.3385V14.9559L8.12054 14.1256ZM6.96114 14.7126H5.77311V14.3118H6.83228V13.9112H5.77311V13.5389H6.97546L7.50504 14.1258L6.96114 14.7126ZM17.324 11.6781H16.637L15.7352 10.1752V11.6781H14.7621L14.5758 11.2343H13.574L13.3879 11.6781H12.8296C12.6006 11.6781 12.3 11.6208 12.1284 11.449C11.9709 11.2773 11.885 11.0483 11.885 10.6904C11.885 10.3898 11.9279 10.1179 12.1425 9.90321C12.2856 9.74571 12.5433 9.67422 12.8725 9.67422H13.3304V10.1037H12.8725C12.7008 10.1037 12.6005 10.1323 12.5004 10.2182C12.4145 10.3041 12.3715 10.4615 12.3715 10.6762C12.3715 10.8909 12.4145 11.0484 12.5004 11.1486C12.5719 11.2201 12.7008 11.2487 12.8295 11.2487H13.0443L13.7313 9.67432H14.447L15.2485 11.5637V9.67422H15.9929L16.8374 11.0626V9.67422H17.3239V11.6781H17.324ZM11.6417 9.67422H11.1552V11.6781H11.6417V9.67422ZM10.6254 9.76013C10.4679 9.67422 10.2962 9.67422 10.0529 9.67422H8.95071V11.6781H9.42301V10.9481H9.93828C10.1101 10.9481 10.2246 10.9624 10.2961 11.034C10.382 11.1342 10.3676 11.306 10.3676 11.4205V11.6781H10.8541V11.2773C10.8541 11.1056 10.8399 11.0196 10.7684 10.9194C10.7255 10.8621 10.6396 10.7905 10.5395 10.7477C10.6681 10.6904 10.883 10.533 10.883 10.2181C10.8831 9.98912 10.7828 9.86025 10.6254 9.76013ZM8.60716 11.2631H7.49073V10.8622H8.59284V10.4472H7.49073V10.0894H8.60716V9.67432H7.0041V11.6782H8.60716V11.2631ZM6.64624 9.67422H5.85903L5.27217 11.034L4.64236 9.67422H3.86946V11.5635L3.05361 9.67422H2.33799L1.47919 11.6781H1.99445L2.18049 11.2343H3.18238L3.36842 11.6781H4.34177V10.1037L5.04307 11.6781H5.4581L6.15951 10.1037V11.6781H6.64614L6.64624 9.67422ZM14.4042 10.805L14.0749 10.0178L13.7458 10.805H14.4042ZM10.2533 10.4902C10.1818 10.5331 10.1102 10.5331 10.01 10.5331H9.42301V10.0895H10.0099C10.0958 10.0895 10.1958 10.0895 10.2532 10.1181C10.3104 10.161 10.3391 10.2183 10.3391 10.3041C10.3391 10.3899 10.3105 10.4614 10.2533 10.4902ZM2.35221 10.805L2.68143 10.0178L3.01066 10.805H2.35221ZM18.5408 3.39062H1.46477V10.6046L2.05162 9.2735H3.29682L3.46865 9.60273V9.2735H4.92863L5.25785 9.98912L5.57276 9.2735H10.2246C10.4392 9.2735 10.6253 9.31646 10.7685 9.4309V9.2735H12.0424V9.4309C12.257 9.31635 12.5289 9.2735 12.8439 9.2735H14.6903L14.8621 9.60273V9.2735H16.2219L16.4223 9.60273V9.2735H17.7533V12.0789H16.408L16.1505 11.6496V12.0789H14.4757L14.2897 11.6209H13.8744L13.6884 12.0789H12.8154C12.4718 12.0789 12.2141 11.993 12.0425 11.9072V12.0789H9.96702V11.4348C9.96702 11.3489 9.9527 11.3346 9.89542 11.3346H9.82393V12.0788H5.81607V11.7209L5.67299 12.0788H4.8285L4.68542 11.7353V12.0788H3.06793L2.89621 11.6208H2.48108L2.29504 12.0788H1.46477V20.5381H18.5408V15.3995C18.3547 15.4854 18.097 15.5284 17.8394 15.5284H16.594V15.3565C16.451 15.4712 16.1932 15.5284 15.95 15.5284H12.0281V14.8843C12.0281 14.7984 12.0139 14.7984 11.9422 14.7984H11.8707V15.5284H10.5824V14.7698C10.3678 14.8699 10.1244 14.8699 9.90974 14.8699H9.76656V15.5284H8.19213L7.82005 15.0989L7.40502 15.5284H4.87135V12.723H7.44777L7.81995 13.1523L8.22077 12.723H9.9527C10.153 12.723 10.4823 12.7516 10.6254 12.8947V12.723H12.1712C12.3287 12.723 12.6293 12.7516 12.8296 12.8947V12.723H15.1627V12.8948C15.2916 12.7802 15.535 12.7231 15.7496 12.7231H17.052V12.8948C17.1953 12.7946 17.3956 12.7231 17.6533 12.7231H18.5408V3.39062Z" fill="#0077A6"/>
</g>
<defs>
<clipPath id="clip0_11455_360">
<rect width="20" height="20" fill="white" transform="translate(0 2)"/>
</clipPath>
</defs>
</svg>
