<svg width="26" height="24" viewBox="0 0 26 24" fill="none" xmlns="http://www.w3.org/2000/svg">
<path d="M16.5154 5.71094H9.48486V18.2901H16.5154V5.71094Z" fill="#FF5F00"/>
<path d="M9.93135 12C9.93024 10.7885 10.206 9.59269 10.7376 8.50301C11.2693 7.41332 12.043 6.45836 13.0002 5.7104C11.8149 4.78277 10.3914 4.20588 8.89233 4.04569C7.3933 3.8855 5.87925 4.14845 4.52322 4.80451C3.16719 5.46056 2.0239 6.48325 1.22404 7.75567C0.424169 9.02809 0 10.4989 0 12C0 13.5011 0.424169 14.9719 1.22404 16.2443C2.0239 17.5168 3.16719 18.5394 4.52322 19.1955C5.87925 19.8516 7.3933 20.1145 8.89233 19.9543C10.3914 19.7941 11.8149 19.2172 13.0002 18.2896C12.043 17.5416 11.2693 16.5867 10.7377 15.497C10.206 14.4073 9.93025 13.2115 9.93135 12Z" fill="#EB001B"/>
<path d="M25.9998 12C25.9999 13.5011 25.5757 14.9719 24.7759 16.2443C23.9761 17.5167 22.8328 18.5394 21.4768 19.1955C20.1208 19.8515 18.6068 20.1145 17.1078 19.9543C15.6088 19.7941 14.1853 19.2172 13 18.2896C13.9563 17.5409 14.7294 16.5858 15.261 15.4963C15.7926 14.4067 16.0688 13.2113 16.0688 12C16.0688 10.7887 15.7926 9.59326 15.261 8.50374C14.7294 7.41423 13.9563 6.45911 13 5.7104C14.1853 4.78276 15.6088 4.20588 17.1078 4.04569C18.6068 3.8855 20.1208 4.14846 21.4768 4.80452C22.8328 5.46059 23.9761 6.48328 24.7759 7.7557C25.5757 9.02812 25.9999 10.4989 25.9998 12Z" fill="#F79E1B"/>
<path d="M25.2335 16.957V16.6995H25.3378V16.647H25.0723V16.6995H25.1766V16.957H25.2335ZM25.749 16.957V16.6465H25.6676L25.574 16.8601L25.4803 16.6465H25.3989V16.957H25.4564V16.7228L25.5442 16.9247H25.6038L25.6915 16.7223V16.957H25.749Z" fill="#F79E1B"/>
</svg>
