<svg width="25" height="24" viewBox="0 0 25 24" fill="none" xmlns="http://www.w3.org/2000/svg">
<g clip-path="url(#clip0_11455_344)">
<path d="M23.7663 4.00552L17.6103 4.00391H17.6086C17.6038 4.00391 17.5992 4.00475 17.5945 4.00475C16.7489 4.03069 15.6955 4.7103 15.5037 5.54825L12.5924 18.4542C12.4006 19.3 12.9224 19.9882 13.762 20.0009H20.2292C21.0559 19.9599 21.8594 19.2881 22.0479 18.4596L24.9593 5.55359C25.1542 4.69929 24.6199 4.00552 23.7663 4.00552Z" fill="#01798A"/>
<path d="M12.5931 18.4538L15.5043 5.54782C15.6961 4.70988 16.7495 4.03026 17.5951 4.00433L15.1474 4.0028L10.7376 4.00195C9.88951 4.01933 8.8225 4.70369 8.63071 5.54791L5.71862 18.4538C5.52607 19.2996 6.04874 19.9878 6.88774 20.0004H13.7626C12.923 19.9878 12.4012 19.2996 12.5931 18.4538Z" fill="#024381"/>
<path d="M5.71699 18.4534L8.62908 5.5474C8.82087 4.70318 9.88787 4.01882 10.7359 4.00144L5.08662 4C4.23383 4 3.14043 4.69224 2.94551 5.5474L0.0334178 18.4534C0.015736 18.5321 0.00583754 18.6093 0 18.6848V18.9241C0.0570218 19.5407 0.526986 19.9897 1.20253 19.9999H6.8861C6.0471 19.9874 5.52443 19.2992 5.71699 18.4534Z" fill="#DD0228"/>
<path d="M10.8557 13.4062H10.9626C11.0608 13.4062 11.1269 13.373 11.158 13.3077L11.4358 12.8911H12.1797L12.0246 13.1651H12.9166L12.8034 13.5849H11.742C11.6197 13.7692 11.4692 13.8557 11.2883 13.8455H10.7355L10.8557 13.4062ZM10.7335 14.0077H12.6879L12.5633 14.4637H11.7773L11.6574 14.9038H12.4222L12.2976 15.3598H11.5328L11.3552 16.0102C11.3112 16.1189 11.369 16.1678 11.5278 16.1567H12.151L12.0355 16.5805H10.8388C10.612 16.5805 10.5342 16.4505 10.6053 16.1899L10.8325 15.3599H10.3437L10.4679 14.9039H10.9568L11.0767 14.4638H10.6093L10.7335 14.0077ZM13.8528 12.8879L13.8221 13.1549C13.8221 13.1549 14.1907 12.8777 14.5255 12.8777H15.7626L15.2895 14.5936C15.2503 14.7897 15.082 14.8873 14.7849 14.8873H13.3826L13.0542 16.0921C13.0351 16.1567 13.0619 16.1898 13.1327 16.1898H13.4086L13.3072 16.5638H12.6058C12.3366 16.5638 12.2245 16.4827 12.269 16.3197L13.1971 12.8879H13.8528ZM14.9005 13.373H13.7962L13.664 13.8361C13.664 13.8361 13.848 13.7031 14.1553 13.6983C14.4618 13.6935 14.8117 13.6983 14.8117 13.6983L14.9005 13.373ZM14.5003 14.4471C14.582 14.4582 14.6278 14.4259 14.6332 14.3495L14.7008 14.1054H13.5948L13.5021 14.4471H14.5003ZM13.7545 15.0015H14.392L14.38 15.2779H14.5497C14.6355 15.2779 14.6781 15.2504 14.6781 15.1961L14.7283 15.0173H15.2582L15.1875 15.2779C15.1276 15.4953 14.9689 15.6087 14.7111 15.6198H14.3715L14.3699 16.0921C14.3637 16.1678 14.4319 16.2064 14.5726 16.2064H14.8917L14.7887 16.5805H14.0232C13.8085 16.5907 13.7033 16.4883 13.7056 16.271L13.7545 15.0015ZM6.02964 10.6019C5.94317 11.0264 5.74275 11.3524 5.43184 11.5839C5.12372 11.8115 4.72643 11.9256 4.23988 11.9256C3.78201 11.9256 3.4464 11.8091 3.23218 11.5752C3.08362 11.4091 3.00977 11.198 3.00977 10.9429C3.00977 10.8374 3.02237 10.724 3.0475 10.602L3.56586 8.09791H4.34868L3.83751 10.5735C3.82289 10.6357 3.81579 10.6994 3.81636 10.7633C3.81552 10.8901 3.84699 10.994 3.91061 11.0751C4.00333 11.1957 4.15384 11.2554 4.3634 11.2554C4.60426 11.2554 4.80274 11.1964 4.9568 11.0774C5.11086 10.9593 5.21145 10.7916 5.25663 10.5734L5.76949 8.09766H6.54842L6.02964 10.6019ZM9.31744 9.61674H9.93056L9.45027 11.8516H8.83834L9.31744 9.61674ZM9.51042 8.80253H10.129L10.0135 9.345H9.39494L9.51042 8.80253ZM10.4733 11.6815C10.3129 11.5279 10.2319 11.3209 10.2311 11.0579C10.2311 11.0129 10.2339 10.9618 10.2399 10.9059C10.2458 10.8492 10.2532 10.7941 10.2638 10.7429C10.3365 10.3798 10.4914 10.0917 10.7299 9.87899C10.968 9.66557 11.2553 9.55851 11.5918 9.55851C11.8673 9.55851 12.0858 9.63573 12.2458 9.78999C12.4057 9.94519 12.4858 10.1546 12.4858 10.4208C12.4858 10.4664 12.4823 10.5192 12.4764 10.5759C12.4695 10.6318 12.461 10.6875 12.4509 10.7429C12.3798 11.1004 12.2254 11.3855 11.9868 11.5941C11.7482 11.8043 11.4617 11.909 11.1277 11.909C10.851 11.9091 10.6333 11.8335 10.4733 11.6815ZM11.6417 11.239C11.7498 11.1217 11.8272 10.9437 11.8744 10.7067C11.8815 10.6696 11.8877 10.6311 11.8916 10.5925C11.8955 10.5547 11.8971 10.5193 11.8971 10.487C11.8971 10.3492 11.8621 10.2421 11.7918 10.1665C11.7219 10.0901 11.6225 10.0523 11.494 10.0523C11.3242 10.0523 11.1858 10.1121 11.0774 10.2319C10.9681 10.3516 10.8906 10.5327 10.8419 10.7736C10.8352 10.8107 10.8297 10.8477 10.8246 10.8839C10.8207 10.921 10.8196 10.9555 10.8203 10.9871C10.8203 11.1241 10.8553 11.2297 10.9256 11.3044C10.9956 11.3793 11.0946 11.4162 11.2247 11.4162C11.3954 11.4161 11.5336 11.3571 11.6417 11.239Z" fill="white"/>
<path d="M17.6092 4.00272L15.1475 4.00195L17.5952 4.00356C17.5997 4.00356 17.6044 4.00272 17.6092 4.00272Z" fill="#E02F41"/>
<path d="M15.1477 4.00237L10.7716 4C10.7606 4 10.7492 4.00076 10.7378 4.00153L15.1477 4.00237Z" fill="#2E4F7D"/>
<path d="M16.4639 13.4255L16.6117 12.9042H17.3592L17.327 13.0956C17.327 13.0956 17.7089 12.9042 17.984 12.9042H18.9083L18.7614 13.4255H18.616L17.9188 15.8841H18.0642L17.9259 16.3723H17.7805L17.72 16.5841H16.996L17.0564 16.3723H15.6283L15.7675 15.8841H15.9106L16.6085 13.4255H16.4639ZM17.2704 13.4255L17.0802 14.0908C17.0802 14.0908 17.4058 13.9657 17.6863 13.9302C17.7482 13.698 17.8292 13.4255 17.8292 13.4255H17.2704ZM16.9921 14.4028L16.8012 15.0998C16.8012 15.0998 17.1619 14.9218 17.4095 14.9068C17.481 14.6375 17.5525 14.4029 17.5525 14.4029L16.9921 14.4028ZM17.132 15.8841L17.275 15.3784H16.7171L16.5732 15.8841H17.132ZM18.9398 12.8719H19.6425L19.6724 13.1317C19.6677 13.1978 19.707 13.2294 19.7903 13.2294H19.9145L19.7889 13.6695H19.2724C19.0753 13.6797 18.9739 13.6041 18.9644 13.4412L18.9398 12.8719ZM18.7338 13.8161H21.0101L20.8765 14.2887H20.1518L20.0275 14.728H20.7516L20.6171 15.1997H19.8107L19.6283 15.4762H20.0231L20.1142 16.0298C20.125 16.0848 20.1738 16.1116 20.2572 16.1116H20.3797L20.2509 16.5675H19.817C19.5921 16.5786 19.476 16.503 19.4664 16.34L19.3618 15.8344L19.0027 16.3723C18.9178 16.5243 18.7872 16.5951 18.6112 16.5841H17.9486L18.0775 16.1281H18.2843C18.3692 16.1281 18.4398 16.0904 18.5035 16.0139L19.0656 15.1997H18.3409L18.4753 14.728H19.2613L19.3863 14.2887H18.5996L18.7338 13.8161ZM6.75088 9.61648H7.30384L7.24056 9.93934L7.31991 9.8472C7.49918 9.65505 7.71687 9.55978 7.97389 9.55978C8.20654 9.55978 8.37431 9.6275 8.47972 9.76371C8.58344 9.89992 8.61179 10.0882 8.56263 10.3299L8.25798 11.8529H7.68971L7.96475 10.4725C7.99309 10.3299 7.98522 10.2236 7.94157 10.1551C7.89842 10.0866 7.81585 10.0527 7.69673 10.0527C7.55054 10.0527 7.42753 10.0983 7.32727 10.189C7.22668 10.2803 7.16027 10.4071 7.12761 10.5685L6.87414 11.8529H6.30469L6.75088 9.61648ZM13.0919 9.61648H13.6454L13.5825 9.93934L13.6609 9.8472C13.8404 9.65505 14.0588 9.55978 14.3151 9.55978C14.5477 9.55978 14.7157 9.6275 14.8204 9.76371C14.9235 9.89992 14.9532 10.0882 14.903 10.3299L14.5995 11.8529H14.0305L14.3057 10.4725C14.3339 10.3299 14.326 10.2236 14.2827 10.1551C14.2379 10.0866 14.1569 10.0527 14.0383 10.0527C13.8921 10.0527 13.7696 10.0983 13.6681 10.189C13.5675 10.2803 13.5007 10.4071 13.4693 10.5685L13.2146 11.8529H12.6459L13.0919 9.61648ZM15.8273 8.23047H17.4339C17.7427 8.23047 17.9817 8.30057 18.1459 8.4383C18.3094 8.57782 18.3912 8.77777 18.3912 9.03841V9.04629C18.3912 9.09588 18.388 9.15182 18.3832 9.21243C18.3751 9.27396 18.3646 9.33518 18.3519 9.39593C18.281 9.74083 18.1168 10.0181 17.863 10.2283C17.6082 10.4377 17.3065 10.5433 16.9591 10.5433H16.0975L15.8311 11.8528H15.0852L15.8273 8.23047ZM16.2289 9.9134H16.9433C17.1295 9.9134 17.2773 9.87 17.3852 9.78422C17.4921 9.6976 17.5629 9.56529 17.6019 9.38576C17.6082 9.35262 17.6122 9.3227 17.6169 9.29515C17.6193 9.26922 17.6224 9.24311 17.6224 9.21802C17.6224 9.08961 17.5769 8.99671 17.4856 8.93839C17.3945 8.87923 17.2514 8.851 17.0534 8.851H16.4466L16.2289 9.9134ZM21.7301 12.2853C21.4942 12.7876 21.2695 13.0805 21.1375 13.2167C21.0054 13.3515 20.7436 13.6648 20.1133 13.6412L20.1677 13.2578C20.6981 13.094 20.9849 12.356 21.1485 12.0293L20.9535 9.62275L21.3639 9.61724H21.7081L21.7452 11.1268L22.3903 9.61724H23.0436L21.7301 12.2853ZM19.9035 9.79914L19.6441 9.9779C19.3729 9.76532 19.1254 9.63377 18.6475 9.85585C17.9967 10.1582 17.4528 12.4774 19.2449 11.7136L19.347 11.8348L20.0521 11.853L20.5151 9.74566L19.9035 9.79914ZM19.5025 10.9512C19.3893 11.2859 19.1364 11.5072 18.9382 11.4442C18.7402 11.3827 18.6694 11.0599 18.7843 10.7244C18.8975 10.3889 19.1521 10.1684 19.3486 10.2314C19.5466 10.2929 19.6181 10.6157 19.5025 10.9512Z" fill="white"/>
</g>
<defs>
<clipPath id="clip0_11455_344">
<rect width="25" height="16" fill="white" transform="translate(0 4)"/>
</clipPath>
</defs>
</svg>
