<svg width="485" height="62" viewBox="0 0 485 62" fill="none" xmlns="http://www.w3.org/2000/svg">
<g clip-path="url(#clip0_55_2349)">
<path d="M73.4791 58.4917L87.6166 58.4422C87.6233 58.4422 87.6286 58.4368 87.6286 58.4301L87.43 1.63038C87.43 1.6237 87.4246 1.61831 87.4179 1.61833L73.2804 1.66776C73.2738 1.66778 73.2684 1.67321 73.2684 1.67989L73.467 58.4796C73.467 58.4863 73.4724 58.4917 73.4791 58.4917Z" fill="white"/>
<path d="M203.732 1.21764L203.781 15.3692C203.781 15.3692 203.775 15.3813 203.769 15.3813L183.928 15.4507L184.077 58.0868C184.077 58.0868 184.077 58.0989 184.065 58.0989L169.934 58.1483C169.934 58.1483 169.922 58.1423 169.922 58.1363L169.773 15.5002L149.932 15.5696C149.932 15.5696 149.92 15.5636 149.92 15.5575L149.87 1.40596C149.87 1.40596 149.876 1.39384 149.882 1.39382L203.719 1.20559C203.719 1.20559 203.732 1.2116 203.732 1.21764Z" fill="white"/>
<path d="M374.337 42.4957C369.194 42.0662 364.896 43.0186 361.867 38.9288C361.867 38.9228 361.867 38.9107 361.879 38.9107C375.526 38.7178 382.071 30.3309 380.948 16.9512C380.148 7.52552 373.807 1.42737 364.421 0.510687L332.243 0.623188C332.237 0.623209 332.231 0.62323 332.231 0.635325L332.429 57.1931C332.429 57.1931 332.429 57.2052 332.441 57.2052L342.247 57.1709C342.247 57.1709 342.259 57.1709 342.259 57.1588L342.196 39.2577C342.196 39.2577 342.196 39.2456 342.208 39.2455L350.787 39.2155C350.787 39.2155 350.793 39.2155 350.799 39.2215L351.012 39.6623C352.165 42.5793 354.177 46.3219 357.742 49.6478C360.221 51.9614 362.854 53.5428 365.329 54.6227C368.827 56.1587 372.606 56.9196 376.424 56.9728C378.013 56.9975 380.182 57.0262 383.408 57.021C383.415 57.0209 383.421 57.0209 383.421 57.0088L383.37 42.573C383.37 42.573 383.37 42.5609 383.358 42.561C378.7 42.5168 374.918 42.5361 374.337 42.4837L374.337 42.4957ZM342.152 26.6604L342.109 14.3776C342.109 14.3776 342.109 14.3655 342.121 14.3654L365.95 14.2821C368.783 14.2722 370.674 17.8398 370.683 20.4161C370.692 22.9924 368.826 26.5732 365.993 26.5831L342.164 26.6664C342.164 26.6664 342.152 26.6664 342.152 26.6543L342.152 26.6604Z" fill="white"/>
<path d="M278.775 0.810089L324.776 0.64926C324.818 0.649112 324.855 0.685271 324.855 0.727605L324.904 14.8792C324.904 14.9215 324.868 14.9579 324.826 14.958L289.717 14.8691C289.675 14.8693 289.639 14.9057 289.639 14.948L289.667 23.0156C289.667 23.0579 289.704 23.0941 289.746 23.094L321.688 22.9823C321.688 22.9823 321.7 22.9822 321.7 22.9943L321.72 28.5461C321.729 31.2434 319.55 33.4403 316.855 33.4497L289.783 33.5443C289.74 33.5445 289.704 33.5809 289.704 33.6232L289.713 36.254C289.725 39.6286 292.472 42.3586 295.843 42.3468L325.955 42.2415C325.997 42.2414 326.033 42.2775 326.033 42.3199L326.085 57.1488C326.085 57.1911 326.049 57.2275 326.007 57.2277L290.754 57.3509C284.205 57.3738 278.876 52.0765 278.853 45.5208L278.697 0.888983C278.696 0.84665 278.733 0.810237 278.775 0.810089Z" fill="white"/>
<path d="M96.1972 1.82944L142.198 1.66861C142.241 1.66847 142.277 1.70462 142.277 1.74696L142.327 15.8985C142.327 15.9408 142.291 15.9773 142.248 15.9774L107.14 15.8885C107.097 15.8886 107.061 15.925 107.061 15.9674L107.09 24.035C107.09 24.0773 107.126 24.1135 107.168 24.1133L139.111 24.0016C139.111 24.0016 139.123 24.0016 139.123 24.0137L139.142 29.5655C139.152 32.2627 136.972 34.4596 134.278 34.469L107.205 34.5637C107.163 34.5638 107.126 34.6002 107.127 34.6426L107.136 37.2733C107.148 40.6479 109.894 43.3779 113.265 43.3662L143.377 43.2609C143.419 43.2607 143.456 43.2969 143.456 43.3392L143.508 58.1681C143.508 58.2104 143.472 58.2469 143.429 58.247L108.176 58.3703C101.627 58.3932 96.2979 53.0958 96.275 46.5401L96.1189 1.90229C96.1188 1.85996 96.1549 1.82354 96.1972 1.82339L96.1972 1.82944Z" fill="white"/>
<path d="M437.61 0.254913L483.611 0.0940839C483.653 0.093936 483.69 0.130095 483.69 0.172429L483.739 14.324C483.739 14.3663 483.703 14.4027 483.661 14.4029L448.552 14.3139C448.51 14.3141 448.474 14.3505 448.474 14.3928L448.502 22.4604C448.502 22.5028 448.539 22.5389 448.581 22.5388L480.523 22.4271C480.523 22.4271 480.535 22.4271 480.535 22.4392L480.555 27.9909C480.564 30.6882 478.385 32.8851 475.69 32.8945L448.617 32.9892C448.575 32.9893 448.539 33.0257 448.539 33.0681L448.548 35.6988C448.56 39.0734 451.307 41.8034 454.678 41.7916L484.789 41.6864C484.832 41.6862 484.868 41.7224 484.868 41.7647L484.92 56.5936C484.92 56.6359 484.884 56.6723 484.842 56.6725L449.589 56.7957C443.04 56.8186 437.71 51.5213 437.688 44.9656L437.532 0.333808C437.531 0.291474 437.568 0.255061 437.61 0.254913Z" fill="white"/>
<path d="M0.726074 1.91534L15.2516 50.6336C17.2562 52.0296 20.9007 54.1155 23.2313 57.1493C24.3238 58.5728 25.1926 59.9607 25.8858 61.2344L42.5185 61.1762C43.4497 59.6852 44.5679 58.0787 45.9154 56.4229C47.9128 53.9787 50.7093 52.0276 52.5044 50.5033C57.5286 34.2294 61.7795 17.9582 66.8097 1.6843L49.8327 1.74366L37.5727 42.8447C37.0462 44.3403 35.6299 45.3431 34.0531 45.3547C32.4641 45.3602 31.0348 44.3674 30.4919 42.8694C26.2632 29.2042 22.0345 15.5269 17.8058 1.85563L0.726074 1.91534Z" fill="white"/>
<path d="M209.882 1.18406L223.686 47.4736C225.594 48.7974 229.057 50.7811 231.266 53.6642C232.304 55.0153 233.13 56.3368 233.787 57.5441L249.592 57.4888C250.475 56.0706 251.539 54.5428 252.821 52.972C254.716 50.6491 257.374 48.7952 259.078 47.3499C263.858 31.8872 267.894 16.4272 272.679 0.96451L256.542 1.02093L244.891 40.0757C244.389 41.4926 243.045 42.4528 241.546 42.4641C240.036 42.4694 238.679 41.5247 238.161 40.0992C234.146 27.1106 230.125 14.1159 226.11 1.12732L209.876 1.18408L209.882 1.18406Z" fill="white"/>
<path d="M410.541 58.5893C405.545 58.6068 401.186 57.8116 397.592 56.2215C393.967 54.6194 391.144 52.3856 388.964 49.3875C387.684 47.626 386.698 45.67 386.032 43.5617L385.61 42.0331L386.54 42.0419L387.144 42.0398L399.355 41.9971L399.749 42.3828L399.791 42.431C400.562 43.3778 401.465 44.1911 402.47 44.8529C405.443 46.7959 408.506 46.7852 410.15 46.7794C412.663 46.7706 414.595 46.268 415.92 45.2836C417.156 44.3661 417.749 43.0819 417.743 41.3522C417.74 40.5116 417.4 39.8476 416.667 39.2635C415.794 38.5589 414.608 37.9946 413.151 37.5824C411.56 37.1404 409.438 36.6459 406.838 36.1288C406.596 36.0692 406.36 36.0277 406.07 35.9803C402.285 35.159 399.043 34.1966 396.375 33.1053C393.598 31.9659 391.218 30.2627 389.319 28.0256C387.359 25.7222 386.358 22.72 386.345 19.1035C386.333 15.487 387.3 12.2723 389.223 9.40495C391.135 6.56188 393.834 4.31478 397.248 2.73043C400.601 1.17048 404.441 0.370848 408.634 0.356189C415.624 0.33175 421.231 2.02366 425.303 5.39011C426.321 6.23324 427.285 7.21565 428.098 8.24092C430.155 10.8282 431.544 14.0045 432.118 17.4134C432.18 17.8668 432.235 18.3262 432.297 18.7796C432.032 18.7805 431.772 18.7814 431.506 18.7763L430.968 18.7782L418.504 18.7189L418.277 17.8367C417.917 16.8462 417.121 15.2705 415.569 14.018C413.413 12.2838 411.038 12.1469 408.977 12.1541L408.603 12.1554C406.349 12.1633 404.575 12.6715 403.34 13.6616C402.165 14.6031 401.601 15.8328 401.607 17.4173C401.61 18.3667 401.939 19.0671 402.636 19.6271C403.484 20.3076 404.591 20.848 405.922 21.2304C407.361 21.6487 409.478 22.1493 412.204 22.7264L413.952 23.0348C417.597 23.7417 420.766 24.6378 423.386 25.7051C426.127 26.8204 428.429 28.5239 430.225 30.7734C432.064 33.0772 433.005 36.0978 433.017 39.7506C433.03 43.4034 432.106 46.8115 430.273 49.6664C428.44 52.5274 425.783 54.7562 422.387 56.28C419.045 57.7855 415.061 58.5554 410.547 58.5711L410.541 58.5893Z" fill="white"/>
</g>
<defs>
<clipPath id="clip0_55_2349">
<rect width="484" height="59.5397" fill="white" transform="translate(0.725586 1.78229) rotate(-0.200317)"/>
</clipPath>
</defs>
</svg>
