<svg width="180" height="64" viewBox="0 0 180 64" fill="none" xmlns="http://www.w3.org/2000/svg">
<g clip-path="url(#clip0_2030_701)">
<path d="M75.1433 30.3774H82.778C82.7813 30.3774 82.7841 30.3747 82.7841 30.3714V0.0059967C82.7841 0.00266457 82.7813 -3.43323e-05 82.778 -3.43323e-05H75.1433C75.14 -3.43323e-05 75.1372 0.00266457 75.1372 0.0059967V30.3714C75.1372 30.3747 75.14 30.3774 75.1433 30.3774Z" fill="white"/>
<path d="M145.588 0.00603167V7.57175C145.588 7.57175 145.586 7.57778 145.582 7.57778H134.867V30.3714C134.867 30.3714 134.867 30.3775 134.861 30.3775H127.228C127.228 30.3775 127.222 30.3755 127.222 30.3714V7.57778H116.508C116.508 7.57778 116.502 7.57577 116.502 7.57175V0.00603167C116.502 0.00603167 116.504 0 116.508 0H145.582C145.582 0 145.588 0.00402111 145.588 0.00603167Z" fill="white"/>
<path d="M118.523 56.2152C115.747 55.9759 113.424 56.4785 111.797 54.285C111.793 54.281 111.797 54.275 111.803 54.275C119.172 54.1966 122.722 49.7251 122.14 42.5695C121.726 37.5311 118.314 34.2619 113.25 33.7532H95.8723C95.8682 33.7532 95.8662 33.7552 95.8662 33.7593V63.994C95.8662 63.994 95.8682 64 95.8723 64H101.168C101.168 64 101.174 63.998 101.174 63.994V54.4238C101.174 54.4238 101.176 54.4177 101.18 54.4177H105.814C105.814 54.4177 105.818 54.4177 105.82 54.4217L105.935 54.657C106.55 56.2172 107.632 58.2237 109.549 60.0071C110.884 61.2496 112.304 62.098 113.635 62.6831C115.52 63.5094 117.561 63.9236 119.622 63.9598C120.478 63.9759 121.651 63.996 123.394 63.998C123.398 63.998 123.4 63.996 123.4 63.992V56.2755C123.4 56.2755 123.398 56.2694 123.394 56.2694C120.88 56.2373 118.837 56.2393 118.525 56.2131L118.523 56.2152ZM101.172 47.6904V41.1259C101.172 41.1259 101.174 41.1199 101.178 41.1199H114.045C115.575 41.1199 116.591 43.0299 116.591 44.4072C116.591 45.7844 115.575 47.6964 114.045 47.6964H101.178C101.178 47.6964 101.172 47.6944 101.172 47.6904Z" fill="white"/>
<path d="M66.2629 33.7532H91.1024C91.1247 33.7532 91.143 33.7713 91.143 33.7934V41.3612C91.143 41.3833 91.1247 41.4014 91.1004 41.4014L72.1426 41.2888C72.1203 41.2888 72.1 41.3069 72.1 41.329V45.6416C72.1 45.6638 72.1183 45.6818 72.1406 45.6818H89.3921C89.3921 45.6818 89.3982 45.6839 89.3982 45.6879V48.6534C89.3982 50.097 88.2173 51.2672 86.7606 51.2672H72.1406C72.1183 51.2672 72.1 51.2853 72.1 51.3074V52.7148C72.1 54.5202 73.577 55.9839 75.3989 55.9839H91.6603C91.6827 55.9839 91.7009 56.002 91.7009 56.0241V63.9518C91.7009 63.9739 91.6827 63.992 91.6603 63.992H72.6235C69.0871 63.992 66.2203 61.1511 66.2203 57.6467V33.7874C66.2203 33.7653 66.2386 33.7472 66.2609 33.7472L66.2629 33.7532Z" fill="white"/>
<path d="M87.5194 0.130676H112.359C112.381 0.130676 112.399 0.148771 112.399 0.170887V7.73862C112.399 7.76073 112.381 7.77883 112.357 7.77883L93.3991 7.66624C93.3768 7.66624 93.3565 7.68433 93.3565 7.70645V12.0191C93.3565 12.0412 93.3747 12.0593 93.397 12.0593H110.649C110.649 12.0593 110.655 12.0613 110.655 12.0653V15.0309C110.655 16.4745 109.474 17.6446 108.017 17.6446H93.397C93.3747 17.6446 93.3565 17.6627 93.3565 17.6848V19.0922C93.3565 20.8977 94.8335 22.3614 96.6554 22.3614H112.917C112.939 22.3614 112.957 22.3795 112.957 22.4016V30.3292C112.957 30.3513 112.939 30.3694 112.917 30.3694H93.8799C90.3436 30.3694 87.4768 27.5285 87.4768 24.0241V0.170887C87.4768 0.148771 87.4951 0.130676 87.5174 0.130676H87.5194Z" fill="white"/>
<path d="M153.76 33.7532H178.599C178.622 33.7532 178.64 33.7713 178.64 33.7934V41.3612C178.64 41.3833 178.622 41.4014 178.597 41.4014L159.64 41.2888C159.617 41.2888 159.597 41.3069 159.597 41.329V45.6416C159.597 45.6638 159.615 45.6818 159.638 45.6818H176.889C176.889 45.6818 176.895 45.6839 176.895 45.6879V48.6534C176.895 50.097 175.714 51.2672 174.258 51.2672H159.638C159.615 51.2672 159.597 51.2853 159.597 51.3074V52.7148C159.597 54.5202 161.074 55.9839 162.896 55.9839H179.157C179.18 55.9839 179.198 56.002 179.198 56.0241V63.9518C179.198 63.9739 179.18 63.992 179.157 63.992H160.121C156.584 63.992 153.717 61.1511 153.717 57.6467V33.7874C153.717 33.7653 153.736 33.7472 153.758 33.7472L153.76 33.7532Z" fill="white"/>
<path d="M132.037 62.7133C131.055 62.281 129.138 61.3199 127.602 59.2149C126.778 58.087 126.344 57.0013 126.104 56.2453C126.104 56.2413 126.104 56.2373 126.111 56.2373C128.241 56.2373 130.373 56.2373 132.504 56.2373C132.504 56.2373 132.508 56.2373 132.508 56.2393C132.83 56.6333 133.35 57.1862 134.11 57.6829C135.892 58.845 137.693 58.8409 138.655 58.8409C140.156 58.8409 141.325 58.5353 142.163 57.9221C143.001 57.3089 143.421 56.4363 143.421 55.2983C143.421 54.657 143.149 54.1181 142.605 53.6798C142.06 53.2435 141.347 52.8997 140.465 52.6524C139.582 52.4051 138.42 52.1357 136.979 51.8442C136.862 51.8161 136.713 51.7859 136.537 51.7557C134.536 51.3195 132.822 50.8088 131.396 50.2257C129.969 49.6426 128.77 48.7821 127.799 47.6462C126.829 46.5082 126.342 45.0365 126.342 43.229C126.342 41.4215 126.835 39.797 127.821 38.3534C128.807 36.9098 130.183 35.7879 131.948 34.9857C133.713 34.1835 135.699 33.7834 137.904 33.7834C141.581 33.7834 144.472 34.6519 146.576 36.385C147.333 37.0083 147.834 37.6235 148.002 37.8347C149.412 39.606 149.875 41.4577 150.049 42.5092C150.049 42.5132 150.047 42.5172 150.043 42.5172C147.943 42.4991 145.843 42.481 143.743 42.465C143.741 42.465 143.739 42.465 143.737 42.4609C143.547 41.9281 143.09 40.8927 142.051 40.0603C140.554 38.86 138.858 38.9023 137.86 38.9023C136.476 38.9023 135.389 39.2159 134.595 39.8432C133.8 40.4705 133.404 41.3089 133.404 42.3584C133.404 43.0581 133.668 43.619 134.2 44.0412C134.729 44.4635 135.399 44.7912 136.208 45.0244C137.018 45.2576 138.172 45.5351 139.672 45.8548L140.641 46.0297C142.583 46.4097 144.253 46.8822 145.651 47.4511C147.049 48.0201 148.203 48.8726 149.114 50.0086C150.025 51.1465 150.481 52.6323 150.481 54.47C150.481 56.3076 150.011 58.0347 149.069 59.4763C148.128 60.9198 146.781 62.0277 145.032 62.7997C143.281 63.5718 141.216 63.9578 138.832 63.9578C136.184 63.9578 133.918 63.5416 132.035 62.7113L132.037 62.7133Z" fill="white"/>
<path d="M0 0L15.5635 52.3448C17.7344 53.8507 21.6765 56.1045 24.1882 59.3677C25.3649 60.8977 26.3023 62.3916 27.0509 63.7607H45.0815C46.0959 62.1664 47.3173 60.4413 48.7862 58.674C50.9612 56.0543 53.9984 53.9734 55.9502 52.3448C61.4667 34.8972 66.1331 17.4476 71.6516 0H53.2416L39.7922 44.0714C39.214 45.6718 37.6782 46.7474 35.9658 46.7535C34.2433 46.7595 32.6952 45.6818 32.113 44.0714C27.5805 29.3802 23.05 14.6911 18.5195 0H0Z" fill="white"/>
</g>
<defs>
<clipPath id="clip0_2030_701">
<rect width="179.2" height="64" fill="white"/>
</clipPath>
</defs>
</svg>
