<svg width="203" height="52" viewBox="0 0 203 52" fill="none" xmlns="http://www.w3.org/2000/svg">
<g clip-path="url(#clip0_11571_269420)">
<path d="M79.4938 25.2667C80.3734 24.6363 81.088 23.8039 81.5774 22.8396C82.0667 21.8753 82.3163 20.8076 82.305 19.7267C82.305 15.5333 78.8928 12.5 74.6925 12.5H63.1035V39.4567H75.0665C79.5305 39.4567 83.1664 36.2 83.1664 31.7433C83.1798 30.4365 82.8472 29.1493 82.2023 28.012C81.5574 26.8747 80.623 25.9277 79.4938 25.2667ZM67.5308 16.9333H74.7092C75.5549 16.9236 76.3698 17.2497 76.9746 17.8398C77.5795 18.4299 77.9248 19.2357 77.9346 20.08C77.9443 20.9243 77.6177 21.7378 77.0266 22.3417C76.4355 22.9456 75.6283 23.2903 74.7827 23.3H67.5308V16.9333ZM75.0665 35.0567H67.5308V27.7233H75.0665C76.0405 27.7233 76.9747 28.1096 77.6635 28.7973C78.3522 29.4849 78.7392 30.4175 78.7392 31.39C78.7392 32.3625 78.3522 33.2951 77.6635 33.9827C76.9747 34.6704 76.0405 35.0567 75.0665 35.0567Z" fill="white"/>
<path d="M97.851 20.3606C96.4328 21.5012 95.2913 22.9473 94.5122 24.5906C92.125 24.9673 90.2886 26.8173 90.2886 29.3473V39.4573H85.8613V20.7373H90.2853V22.8706C90.9809 22.0655 91.8456 21.4232 92.8179 20.9894C93.7902 20.5556 94.8463 20.3409 95.9112 20.3606H97.851Z" fill="white"/>
<path d="M105.514 20.3633C100.075 20.3633 95.9512 24.5933 95.9512 30.0966C95.9512 35.6 100.262 39.83 105.924 39.83C108.999 39.83 111.624 38.7433 113.427 36.7599L110.612 33.9533C109.487 35.19 107.764 35.8266 105.961 35.8266C103.186 35.8266 101.086 34.4033 100.338 32.08H114.288C114.361 31.3333 114.475 30.5466 114.475 29.8333C114.475 24.2566 110.839 20.3633 105.514 20.3633ZM100.262 28.6366C100.639 26.0533 102.849 24.33 105.437 24.33C107.951 24.33 109.937 25.9966 110.311 28.6366H100.262Z" fill="white"/>
<path d="M126.394 20.3633C120.959 20.3633 116.832 24.5933 116.832 30.0966C116.832 35.6 121.146 39.83 126.808 39.83C129.883 39.83 132.508 38.7433 134.307 36.7599L131.496 33.9533C130.371 35.19 128.645 35.8266 126.845 35.8266C124.071 35.8266 121.97 34.4033 121.219 32.08H135.169C135.246 31.3333 135.359 30.5466 135.359 29.8333C135.359 24.2566 131.72 20.3633 126.394 20.3633ZM121.146 28.6366C121.52 26.0533 123.733 24.33 126.321 24.33C128.832 24.33 130.822 25.9966 131.196 28.6366H121.146Z" fill="white"/>
<path d="M152.31 35.3305V39.4505H136.711V36.1538L137.045 35.7238L145.776 24.8471H137.095C136.487 23.2889 135.543 21.8834 134.33 20.7305H151.729V23.9971L142.617 35.3305H152.31Z" fill="white"/>
<path d="M159.709 20.7383H155.285V39.4583H159.709V20.7383Z" fill="white"/>
<path d="M157.512 12.5001C156.987 12.4961 156.473 12.6481 156.035 12.9367C155.597 13.2252 155.255 13.6373 155.053 14.1205C154.85 14.6037 154.796 15.1362 154.897 15.6501C154.999 16.1641 155.251 16.6364 155.622 17.0068C155.993 17.3772 156.466 17.629 156.981 17.7302C157.496 17.8315 158.029 17.7775 158.513 17.5752C158.997 17.3729 159.41 17.0314 159.699 16.5943C159.988 16.1571 160.14 15.6439 160.136 15.1201C160.134 14.426 159.856 13.7611 159.365 13.2704C158.873 12.7796 158.207 12.5027 157.512 12.5001Z" fill="white"/>
<path d="M173.665 20.3633C172.614 20.3623 171.573 20.5743 170.606 20.9862C169.639 21.3981 168.766 22.0015 168.039 22.76V20.7366H163.615V39.4566H168.039V29.3466C168.039 26.39 170.042 24.5166 172.577 24.5166C174.937 24.5166 176.583 25.98 176.583 29.1233V39.4566H181.007V28.1866C181.014 23.4333 178.012 20.3633 173.665 20.3633Z" fill="white"/>
<path d="M198.472 20.735V23.0683C197.752 22.2407 196.866 21.5733 195.871 21.1093C194.876 20.6453 193.794 20.3952 192.696 20.375C187.334 20.375 183.397 24.755 183.397 30.1083C183.397 35.4617 187.334 39.8417 192.696 39.8417C193.802 39.8249 194.892 39.5685 195.889 39.0902C196.886 38.612 197.768 37.9233 198.472 37.0717V39.405C198.472 42.215 196.446 43.8983 192.96 43.8983C191.029 43.8878 189.162 43.2132 187.671 41.9883L184.596 45.0583C186.81 47.0817 189.938 48.0917 192.883 48.0917C199.11 48.0917 202.899 44.685 202.899 39.0917V20.7583L198.472 20.735ZM193.13 35.4017C192.074 35.4017 191.041 35.0889 190.162 34.5028C189.284 33.9168 188.599 33.0839 188.195 32.1093C187.79 31.1348 187.685 30.0624 187.891 29.0279C188.097 27.9933 188.606 27.043 189.353 26.2971C190.1 25.5512 191.052 25.0433 192.088 24.8375C193.124 24.6317 194.198 24.7373 195.174 25.141C196.151 25.5446 196.985 26.2282 197.572 27.1053C198.159 27.9823 198.472 29.0135 198.472 30.0683C198.475 31.4817 197.915 32.8383 196.917 33.8401C195.918 34.842 194.562 35.4072 193.147 35.4117L193.13 35.4017Z" fill="white"/>
</g>
<path d="M12.0195 27.5C15.2072 27.5 18.2644 28.7644 20.5186 31.0146C22.7727 33.2651 24.0391 36.3174 24.0391 39.5V51.5L12.0195 39.5V27.5ZM39.0645 39.5H27.0439C27.0439 36.3175 28.3104 33.2651 30.5645 31.0146C32.8186 28.7642 35.8766 27.5 39.0645 27.5H51.084L39.0645 39.5ZM24.0391 12.5C24.0391 15.6826 22.7727 18.7349 20.5186 20.9854C18.4054 23.0949 15.5868 24.3381 12.6162 24.4854L12.0195 24.5H0L12.0195 12.5H24.0391ZM39.0645 12.5V24.5C35.8766 24.5 32.8186 23.2358 30.5645 20.9854C28.4512 18.8755 27.2069 16.0607 27.0596 13.0947L27.0439 12.5V0.5L39.0645 12.5Z" fill="white"/>
<defs>
<clipPath id="clip0_11571_269420">
<rect width="139.793" height="35.5667" fill="white" transform="translate(63.1035 12.5)"/>
</clipPath>
</defs>
</svg>
