<svg width="48" height="48" viewBox="0 0 48 48" fill="none" xmlns="http://www.w3.org/2000/svg">
<path d="M24.0016 15.998L5.92158 34.118C5.3429 34.6274 4.87478 35.2499 4.54611 35.9472C4.21744 36.6445 4.03521 37.4018 4.01067 38.1723C3.98613 38.9428 4.1198 39.7101 4.40344 40.4269C4.68707 41.1437 5.11463 41.7948 5.65973 42.3399C6.20483 42.885 6.85589 43.3126 7.5727 43.5962C8.28951 43.8798 9.05685 44.0135 9.82735 43.989C10.5978 43.9644 11.3551 43.7822 12.0524 43.4535C12.7497 43.1249 13.3723 42.6567 13.8816 42.078L32.0016 23.998" stroke="white" stroke-width="3" stroke-linecap="round" stroke-linejoin="round"/>
<path d="M34 23.998C39.5228 23.998 44 19.5209 44 13.998C44 8.4752 39.5228 3.99805 34 3.99805C28.4772 3.99805 24 8.4752 24 13.998C24 19.5209 28.4772 23.998 34 23.998Z" stroke="white" stroke-width="3" stroke-linecap="round" stroke-linejoin="round"/>
</svg>
