<svg width="74" height="32" viewBox="0 0 74 32" fill="none" xmlns="http://www.w3.org/2000/svg">
<path d="M58.0081 13.3546C58.6254 13.3546 59.2428 13.3546 59.8601 13.3546C60.4088 13.3546 60.642 13.5604 60.6489 14.0954C60.6626 15.3712 60.6557 16.647 60.6489 17.9228C60.6489 18.403 60.4088 18.6773 59.915 18.6773C58.6254 18.6773 57.3428 18.6773 56.0532 18.6773C55.5662 18.6773 55.3262 18.4235 55.3262 17.9297C55.3262 16.6539 55.3262 15.3781 55.3262 14.1023C55.3262 13.5672 55.5525 13.3615 56.1013 13.3546C56.7392 13.3478 57.3702 13.3546 58.0081 13.3546Z" fill="white"/>
<path d="M59.9012 1.77062L59.3662 0.0078125H59.7915L60.1619 1.32477L60.5323 0.0078125H60.9507L60.4157 1.77062H59.9012Z" fill="white"/>
<path d="M61.1768 1.77062V0.0078125H61.5883V1.77062H61.1768Z" fill="white"/>
<path d="M62.3707 1.78434C62.3295 1.78434 62.2884 1.78434 62.2335 1.77062C62.1786 1.7569 62.1306 1.74318 62.0826 1.72261C62.0346 1.69517 61.9934 1.65401 61.966 1.59914C61.9317 1.54427 61.918 1.46882 61.918 1.37965V0.433078C61.918 0.350768 61.9317 0.282179 61.9591 0.227306C61.9866 0.172432 62.0209 0.131276 62.062 0.0969799C62.1032 0.062684 62.1512 0.0421075 62.1992 0.0283892C62.2472 0.0146708 62.3021 0.0078125 62.3501 0.0078125C62.4736 0.0078125 62.5902 0.0078125 62.6793 0.0078125C62.7685 0.0078125 62.8577 0.0146694 62.9263 0.0215285C62.9949 0.0215285 63.0634 0.0283854 63.1183 0.0352446V0.385064H62.4736C62.4324 0.385064 62.3981 0.391924 62.3707 0.412501C62.3501 0.433079 62.3364 0.460515 62.3364 0.508529V0.700585L63.0017 0.721162V1.04354L62.3364 1.06412V1.24932C62.3364 1.28362 62.3364 1.31106 62.3501 1.33163C62.3638 1.35221 62.3775 1.36593 62.3981 1.37279C62.4187 1.37965 62.4393 1.3865 62.4598 1.3865H63.1183V1.72946C63.0497 1.73632 62.9674 1.74318 62.8851 1.75004C62.8028 1.7569 62.7136 1.76376 62.6245 1.76376C62.5353 1.76376 62.453 1.76376 62.3707 1.76376V1.78434Z" fill="white"/>
<path d="M63.7701 1.76967V0.370396H63.3037V0H64.6412V0.370396H64.1748V1.76967H63.7633H63.7701Z" fill="white"/>
<path d="M64.8877 1.77062V0.0078125H65.2169L65.8891 1.07784V0.0078125H66.3007V1.77062H65.9714L65.2992 0.707446V1.77062H64.8877Z" fill="white"/>
<path d="M66.5137 1.77062L67.0487 0.0078125H67.5631L68.0982 1.77062H67.6729L67.5837 1.44824H67.0213L66.9321 1.77062H66.5068H66.5137ZM67.1173 1.07784H67.4877L67.3025 0.357627L67.1173 1.07784Z" fill="white"/>
<path d="M68.2764 1.77062L68.4821 0.0078125H68.8731L69.2572 1.29734L69.6345 0.0078125H70.0186L70.2312 1.77062H69.8334L69.6894 0.556543H69.7511L69.4424 1.77062H69.0583L68.7497 0.563404H68.8182L68.6811 1.77062H68.2832H68.2764Z" fill="white"/>
<path d="M59.4824 4.74718V2.98438H59.8117L60.4839 4.0544V2.98438H60.8954V4.74718H60.5662L59.894 3.68401V4.74718H59.4824Z" fill="white"/>
<path d="M61.1153 4.74718L61.6503 2.98438H62.1647L62.6997 4.74718H62.2745L62.1853 4.4248H61.6228L61.5337 4.74718H61.1084H61.1153ZM61.7189 4.0544H62.0893L61.9041 3.33419L61.7189 4.0544Z" fill="white"/>
<path d="M63.1656 4.74623V3.34696H62.6992V2.97656H64.0368V3.34696H63.5703V4.74623H63.1588H63.1656Z" fill="white"/>
<path d="M64.2773 4.74718V2.98438H64.6889V4.74718H64.2773Z" fill="white"/>
<path d="M65.7242 4.76C65.6007 4.76 65.4978 4.74628 65.4018 4.7257C65.3058 4.70512 65.2303 4.6571 65.1686 4.59537C65.1069 4.53364 65.0588 4.44447 65.0314 4.321C64.9971 4.2044 64.9834 4.0535 64.9834 3.86144C64.9834 3.66938 64.9971 3.51848 65.0314 3.40188C65.0657 3.28527 65.1069 3.1961 65.1686 3.12751C65.2303 3.05892 65.3058 3.01776 65.4018 2.99718C65.4978 2.96975 65.6007 2.96289 65.7242 2.96289C65.8477 2.96289 65.9574 2.97661 66.0466 2.99718C66.1426 3.02462 66.218 3.06578 66.2798 3.12751C66.3415 3.18924 66.3895 3.27841 66.417 3.40188C66.4513 3.51848 66.465 3.66938 66.465 3.86144C66.465 4.0535 66.4513 4.2044 66.417 4.321C66.3895 4.43761 66.3415 4.52678 66.2798 4.59537C66.218 4.66396 66.1426 4.70512 66.0466 4.7257C65.9574 4.74628 65.8477 4.76 65.7242 4.76ZM65.7242 4.3896C65.7859 4.3896 65.8408 4.38274 65.8888 4.36902C65.93 4.3553 65.9643 4.32787 65.9917 4.29357C66.0191 4.25928 66.0329 4.2044 66.0466 4.13581C66.0603 4.06722 66.0603 3.97805 66.0603 3.8683C66.0603 3.75855 66.0603 3.66253 66.0466 3.59393C66.0329 3.52534 66.0191 3.47047 65.9917 3.43618C65.9643 3.40188 65.9368 3.37444 65.8888 3.36072C65.8476 3.34701 65.7928 3.34014 65.7242 3.34014C65.6556 3.34014 65.6076 3.34015 65.5664 3.36072C65.5253 3.37444 65.491 3.40188 65.4635 3.43618C65.4361 3.47047 65.4224 3.52534 65.4087 3.59393C65.3949 3.66253 65.3949 3.7517 65.3949 3.8683C65.3949 3.98491 65.3949 4.06722 65.4087 4.13581C65.4224 4.2044 65.4361 4.25928 65.4635 4.29357C65.491 4.32787 65.5184 4.3553 65.5664 4.36902C65.6076 4.38274 65.6625 4.3896 65.731 4.3896H65.7242Z" fill="white"/>
<path d="M66.7666 4.74718V2.98438H67.0958L67.768 4.0544V2.98438H68.1796V4.74718H67.8503L67.1782 3.68401V4.74718H66.7666Z" fill="white"/>
<path d="M68.3926 4.74718L68.9276 2.98438H69.4421L69.9771 4.74718H69.5518L69.4626 4.4248H68.9002L68.811 4.74718H68.3857H68.3926ZM68.9962 4.0544H69.3666L69.1814 3.33419L68.9962 4.0544Z" fill="white"/>
<path d="M70.6421 4.74623C70.5392 4.74623 70.4569 4.73251 70.3952 4.69822C70.3334 4.67078 70.2786 4.62277 70.2511 4.55417C70.2168 4.49244 70.2031 4.40327 70.2031 4.30038V2.97656H70.6147V4.23179C70.6147 4.23179 70.6147 4.29353 70.6284 4.3141C70.6421 4.33468 70.6558 4.3484 70.6764 4.36212C70.697 4.36898 70.7244 4.37583 70.7519 4.37583H71.2869V4.74623H70.6421Z" fill="white"/>
<path d="M59.4756 7.72374V5.96094H59.8871V7.72374H59.4756Z" fill="white"/>
<path d="M60.2373 7.72374V5.96094H60.5665L61.2387 7.03097V5.96094H61.6503V7.72374H61.3211L60.6488 6.66057V7.72374H60.2373Z" fill="white"/>
<path d="M61.9863 7.72374V5.96094H62.3156L62.9878 7.03097V5.96094H63.3993V7.72374H63.0701L62.3979 6.66057V7.72374H61.9863Z" fill="white"/>
<path d="M64.4283 7.73656C64.3048 7.73656 64.2019 7.72284 64.1059 7.70226C64.0099 7.68168 63.9344 7.63367 63.8727 7.57194C63.811 7.51021 63.7629 7.42104 63.7355 7.29757C63.7012 7.18097 63.6875 7.03007 63.6875 6.83801C63.6875 6.64595 63.7012 6.49505 63.7355 6.37844C63.7698 6.26183 63.811 6.17267 63.8727 6.10408C63.9344 6.03549 64.0099 5.99433 64.1059 5.97375C64.2019 5.94631 64.3048 5.93945 64.4283 5.93945C64.5518 5.93945 64.6615 5.95317 64.7507 5.97375C64.8467 6.00119 64.9221 6.04234 64.9839 6.10408C65.0456 6.16581 65.0936 6.25497 65.1211 6.37844C65.1554 6.49505 65.1691 6.64595 65.1691 6.83801C65.1691 7.03007 65.1554 7.18097 65.1211 7.29757C65.0936 7.41418 65.0456 7.50335 64.9839 7.57194C64.9221 7.64053 64.8467 7.68168 64.7507 7.70226C64.6615 7.72284 64.5518 7.73656 64.4283 7.73656ZM64.4283 7.36616C64.49 7.36616 64.5449 7.3593 64.5929 7.34559C64.6341 7.33187 64.6684 7.30443 64.6958 7.27013C64.7232 7.23584 64.737 7.18096 64.7507 7.11237C64.7644 7.04378 64.7644 6.95461 64.7644 6.84486C64.7644 6.73512 64.7644 6.63909 64.7507 6.5705C64.737 6.50191 64.7232 6.44703 64.6958 6.41274C64.6684 6.37844 64.6409 6.351 64.5929 6.33729C64.5517 6.32357 64.4969 6.31671 64.4283 6.31671C64.3597 6.31671 64.3117 6.31671 64.2705 6.33729C64.2294 6.351 64.1951 6.37844 64.1676 6.41274C64.1402 6.44703 64.1265 6.50191 64.1128 6.5705C64.099 6.63909 64.099 6.72826 64.099 6.84486C64.099 6.96147 64.099 7.04378 64.1128 7.11237C64.1265 7.18096 64.1402 7.23584 64.1676 7.27013C64.1951 7.30443 64.2225 7.33187 64.2705 7.34559C64.3117 7.3593 64.3666 7.36616 64.4351 7.36616H64.4283Z" fill="white"/>
<path d="M65.8475 7.72374L65.3125 5.96094H65.7378L66.1082 7.2779L66.4786 5.96094H66.897L66.362 7.72374H65.8475Z" fill="white"/>
<path d="M66.918 7.72374L67.453 5.96094H67.9674L68.5025 7.72374H68.0772L67.988 7.40136H67.4256L67.3364 7.72374H66.9111H66.918ZM67.5216 7.03097H67.892L67.7068 6.31075L67.5216 7.03097Z" fill="white"/>
<path d="M68.9752 7.72279V6.32352H68.5088V5.95312H69.8463V6.32352H69.3799V7.72279H68.9684H68.9752Z" fill="white"/>
<path d="M70.0869 7.72374V5.96094H70.4985V7.72374H70.0869Z" fill="white"/>
<path d="M71.5269 7.73656C71.4035 7.73656 71.3006 7.72284 71.2045 7.70226C71.1085 7.68168 71.0331 7.63367 70.9713 7.57194C70.9096 7.51021 70.8616 7.42104 70.8342 7.29757C70.7999 7.18097 70.7861 7.03007 70.7861 6.83801C70.7861 6.64595 70.7999 6.49505 70.8342 6.37844C70.8684 6.26183 70.9096 6.17267 70.9713 6.10408C71.0331 6.03549 71.1085 5.99433 71.2045 5.97375C71.3006 5.94631 71.4035 5.93945 71.5269 5.93945C71.6504 5.93945 71.7601 5.95317 71.8493 5.97375C71.9453 6.00119 72.0208 6.04234 72.0825 6.10408C72.1443 6.16581 72.1923 6.25497 72.2197 6.37844C72.254 6.49505 72.2677 6.64595 72.2677 6.83801C72.2677 7.03007 72.254 7.18097 72.2197 7.29757C72.1923 7.41418 72.1443 7.50335 72.0825 7.57194C72.0208 7.64053 71.9453 7.68168 71.8493 7.70226C71.7601 7.72284 71.6504 7.73656 71.5269 7.73656ZM71.5269 7.36616C71.5887 7.36616 71.6435 7.3593 71.6916 7.34559C71.7327 7.33187 71.767 7.30443 71.7944 7.27013C71.8219 7.23584 71.8356 7.18096 71.8493 7.11237C71.863 7.04378 71.863 6.95461 71.863 6.84486C71.863 6.73512 71.863 6.63909 71.8493 6.5705C71.8356 6.50191 71.8219 6.44703 71.7944 6.41274C71.767 6.37844 71.7396 6.351 71.6916 6.33729C71.6504 6.32357 71.5955 6.31671 71.5269 6.31671C71.4583 6.31671 71.4103 6.31671 71.3692 6.33729C71.328 6.351 71.2937 6.37844 71.2663 6.41274C71.2388 6.44703 71.2251 6.50191 71.2114 6.5705C71.1977 6.63909 71.1977 6.72826 71.1977 6.84486C71.1977 6.96147 71.1977 7.04378 71.2114 7.11237C71.2251 7.18096 71.2388 7.23584 71.2663 7.27013C71.2937 7.30443 71.3212 7.33187 71.3692 7.34559C71.4103 7.3593 71.4652 7.36616 71.5338 7.36616H71.5269Z" fill="white"/>
<path d="M72.5693 7.72374V5.96094H72.8986L73.5708 7.03097V5.96094H73.9823V7.72374H73.6531L72.9809 6.66057V7.72374H72.5693Z" fill="white"/>
<path d="M60.0793 10.7141C59.9764 10.7141 59.8872 10.7004 59.8118 10.6798C59.7363 10.6592 59.6678 10.6112 59.6129 10.5495C59.558 10.4878 59.5169 10.3917 59.4826 10.2751C59.4551 10.1585 59.4414 10.0008 59.4414 9.81557C59.4414 9.63037 59.4551 9.47947 59.4894 9.36286C59.5169 9.24626 59.5649 9.15709 59.6197 9.0885C59.6746 9.02676 59.7432 8.97875 59.8255 8.95131C59.9078 8.92387 59.997 8.91016 60.093 8.91016C60.1822 8.91016 60.2645 8.91016 60.3331 8.92388C60.4085 8.93074 60.4703 8.94445 60.5252 8.95817C60.58 8.97189 60.6212 8.98561 60.6555 8.99932V9.31485C60.6555 9.31485 60.5869 9.30113 60.5389 9.29427C60.4909 9.29427 60.436 9.28055 60.3743 9.28055C60.3125 9.28055 60.2439 9.28055 60.1753 9.28055C60.1136 9.28055 60.0656 9.28055 60.0244 9.30113C59.9833 9.32171 59.949 9.33543 59.9215 9.37658C59.8941 9.41088 59.8804 9.46575 59.8667 9.53434C59.853 9.60294 59.8461 9.6921 59.8461 9.80871C59.8461 9.91159 59.8461 10.0008 59.8598 10.0694C59.8667 10.138 59.8872 10.1928 59.9078 10.234C59.9284 10.2751 59.9627 10.2957 60.0039 10.3163C60.045 10.33 60.0999 10.3369 60.1685 10.3369C60.2919 10.3369 60.388 10.3369 60.4634 10.33C60.5389 10.33 60.6006 10.3163 60.6486 10.3163V10.6318C60.6075 10.6455 60.5595 10.6592 60.5046 10.673C60.4497 10.6867 60.388 10.6935 60.3194 10.7004C60.2508 10.7004 60.1685 10.7073 60.0793 10.7073V10.7141Z" fill="white"/>
<path d="M61.3619 10.714C61.3207 10.714 61.2796 10.714 61.2247 10.7003C61.1698 10.6866 61.1218 10.6729 61.0738 10.6523C61.0258 10.6249 60.9846 10.5837 60.9572 10.5288C60.9229 10.474 60.9092 10.3985 60.9092 10.3093V9.36277C60.9092 9.28046 60.9229 9.21187 60.9503 9.15699C60.9778 9.10212 61.0121 9.06096 61.0532 9.02667C61.0944 8.99237 61.1424 8.9718 61.1904 8.95808C61.2384 8.94436 61.2933 8.9375 61.3413 8.9375C61.4648 8.9375 61.5814 8.9375 61.6705 8.9375C61.7597 8.9375 61.8489 8.94436 61.9175 8.95122C61.9861 8.95122 62.0547 8.95808 62.1095 8.96494V9.31476H61.4648C61.4236 9.31476 61.3893 9.32161 61.3619 9.34219C61.3413 9.36277 61.3276 9.39021 61.3276 9.43822V9.63028L61.9929 9.65085V9.97324L61.3276 9.99381V10.179C61.3276 10.2133 61.3276 10.2407 61.3413 10.2613C61.355 10.2819 61.3687 10.2956 61.3893 10.3025C61.4099 10.3093 61.4305 10.3162 61.451 10.3162H62.1095V10.6592C62.0409 10.666 61.9586 10.6729 61.8763 10.6797C61.794 10.6866 61.7048 10.6934 61.6157 10.6934C61.5265 10.6934 61.4442 10.6934 61.3619 10.6934V10.714Z" fill="white"/>
<path d="M62.4043 10.7003V8.9375H62.7335L63.4057 10.0075V8.9375H63.8173V10.7003H63.488L62.8158 9.63713V10.7003H62.4043Z" fill="white"/>
<path d="M64.5104 10.7013V9.30204H64.0439V8.93164H65.3815V9.30204H64.9151V10.7013H64.5035H64.5104Z" fill="white"/>
<path d="M66.0396 10.714C65.9985 10.714 65.9573 10.714 65.9024 10.7003C65.8476 10.6866 65.7995 10.6729 65.7515 10.6523C65.7035 10.6249 65.6624 10.5837 65.6349 10.5288C65.6006 10.474 65.5869 10.3985 65.5869 10.3093V9.36277C65.5869 9.28046 65.6006 9.21187 65.6281 9.15699C65.6555 9.10212 65.6898 9.06096 65.731 9.02667C65.7721 8.99237 65.8201 8.9718 65.8681 8.95808C65.9161 8.94436 65.971 8.9375 66.019 8.9375C66.1425 8.9375 66.2591 8.9375 66.3483 8.9375C66.4375 8.9375 66.5266 8.94436 66.5952 8.95122C66.6638 8.95122 66.7324 8.95808 66.7873 8.96494V9.31476H66.1425C66.1014 9.31476 66.067 9.32161 66.0396 9.34219C66.019 9.36277 66.0053 9.39021 66.0053 9.43822V9.63028L66.6707 9.65085V9.97324L66.0053 9.99381V10.179C66.0053 10.2133 66.0053 10.2407 66.019 10.2613C66.0328 10.2819 66.0465 10.2956 66.0671 10.3025C66.0876 10.3093 66.1082 10.3162 66.1288 10.3162H66.7873V10.6592C66.7187 10.666 66.6364 10.6729 66.554 10.6797C66.4717 10.6866 66.3826 10.6934 66.2934 10.6934C66.2042 10.6934 66.1219 10.6934 66.0396 10.6934V10.714Z" fill="white"/>
<path d="M67.082 10.7003V8.9375H67.8228C67.8983 8.9375 67.9669 8.94436 68.0286 8.96494C68.0903 8.98551 68.1452 9.01295 68.1932 9.06097C68.2412 9.10212 68.2755 9.16385 68.303 9.23931C68.3304 9.31476 68.3441 9.41078 68.3441 9.52053C68.3441 9.59598 68.3373 9.66457 68.3235 9.71945C68.3098 9.77432 68.2892 9.82233 68.2687 9.85663C68.2481 9.89092 68.2207 9.92522 68.1864 9.9458C68.1589 9.96638 68.1246 9.98695 68.0903 10.0075L68.4059 10.7003H67.9874L67.7268 10.0693C67.7268 10.0693 67.6925 10.0693 67.6719 10.0693C67.6513 10.0693 67.6308 10.0693 67.6102 10.0693H67.4936V10.7003H67.082ZM67.4936 9.74688H67.7474C67.7474 9.74688 67.8022 9.74688 67.8228 9.73317C67.8434 9.72631 67.864 9.71259 67.8777 9.69201C67.8914 9.67143 67.9051 9.65085 67.912 9.62342C67.9189 9.59598 67.9257 9.56168 67.9257 9.51367C67.9257 9.46565 67.9257 9.43822 67.912 9.41078C67.9051 9.38335 67.8914 9.36277 67.8777 9.34905C67.864 9.33533 67.8434 9.32162 67.8228 9.31476C67.8022 9.3079 67.7748 9.30104 67.7474 9.30104H67.4936V9.74002V9.74688Z" fill="white"/>
<path d="M0 16.0025C0 11.352 0 6.70143 0 2.04405C0 1.20723 0.11661 1.09062 0.974006 1.09062C2.37328 1.09062 3.77941 1.12492 5.17868 1.07691C6.30358 1.03575 7.11982 1.46788 7.82632 2.32528C11.6812 6.98951 15.5635 11.6263 19.4389 16.2768C19.5418 16.4003 19.6378 16.5443 19.7681 16.6335C20.0219 16.805 20.2208 16.7158 20.2963 16.4346C20.3374 16.2837 20.3169 16.1122 20.3169 15.9545C20.3169 11.3725 20.3169 6.72886 20.3169 2.14694C20.3169 1.2621 20.4541 1.12492 21.3526 1.12492C23.3829 1.12492 25.4132 1.12492 27.4436 1.12492C28.2598 1.12492 28.397 1.25524 28.397 2.05091C28.397 11.3519 28.397 20.7284 28.397 30.0295C28.397 30.7771 28.2255 30.9555 27.4916 30.9555C25.9483 30.9555 24.4049 30.9417 22.8548 30.9623C22.0179 30.976 21.3869 30.6674 20.8519 30.0226C16.8873 25.2623 12.909 20.5158 8.93065 15.7693C8.84148 15.6595 8.75917 15.536 8.64256 15.4537C8.39563 15.2754 8.18985 15.3577 8.1144 15.6389C8.06639 15.8104 8.08697 15.9956 8.08697 16.1739C8.08697 20.7559 8.08697 25.3309 8.08697 29.9129C8.08697 30.7908 7.9292 30.9486 7.05809 30.9486C5.02777 30.9486 2.99746 30.9486 0.967146 30.9486C0.1852 30.9486 0.0205819 30.784 0.0205819 30.0089C0.0205819 25.3378 0.0205819 20.6667 0.0205819 16.0025H0Z" fill="white"/>
<path d="M31.1885 15.9604C31.1885 11.3305 31.1885 6.6937 31.1885 2.06376C31.1885 1.28181 31.3531 1.11719 32.1282 1.11719C34.1722 1.11719 36.2231 1.11719 38.2672 1.11719C38.9942 1.11719 39.1794 1.30924 39.1794 2.04317C39.1794 11.3648 39.1794 20.6864 39.1794 30.0012C39.1794 30.7282 38.9874 30.9203 38.2534 30.9203C36.1888 30.9203 34.1242 30.9203 32.0596 30.9203C31.36 30.9203 31.1816 30.7351 31.1816 30.0217C31.1816 25.3369 31.1816 20.6453 31.1816 15.9604H31.1885Z" fill="white"/>
<path d="M56.6221 1.03534C56.6084 0.383714 56.1969 0.0544734 55.559 0.177939C55.0171 0.280826 54.4684 0.376855 53.9333 0.520897C46.1276 2.64038 41.4222 9.67789 42.0807 17.7168C42.8764 23.0258 45.1948 26.8052 49.4406 29.5832C52.925 31.6204 56.5124 32.4161 60.4221 31.7919C66.4102 30.8316 70.7726 26.8601 72.8304 21.9284C73.187 21.1053 73.0087 20.7555 72.1582 20.4879C70.5943 19.9872 69.0235 19.4865 67.4596 18.9858C66.4925 18.6771 66.2867 18.8075 65.882 19.7266C64.03 23.5609 60.0723 25.3717 56.2243 24.5692C51.2102 23.4305 48.5695 18.8006 49.4269 14.1912C50.4214 10.8714 52.342 8.58042 55.7647 7.53783C56.4369 7.33205 56.5741 7.1743 56.581 6.47466L56.6359 1.03534H56.6221Z" fill="white"/>
</svg>
