<svg width="193" height="16" viewBox="0 0 193 16" fill="none" xmlns="http://www.w3.org/2000/svg">
<g clip-path="url(#clip0_11220_33979)">
<path d="M0 0H4.7247C7.5587 0 9.40486 1.60182 9.40486 4.14294C9.40486 5.74475 8.60729 7.038 7.07287 7.60068C9.10931 8.11798 10.1781 9.6245 10.1781 11.5757C10.1781 14.3755 8.35223 16 5.4332 16H0V0ZM1.40486 1.29325V7.12876H4.65992C6.7166 7.12876 7.95547 5.97618 7.95547 4.23369C7.95547 2.49121 6.69636 1.29325 4.70041 1.29325H1.40486ZM1.40486 8.39932V14.7068H5.41296C7.44939 14.7068 8.72875 13.4589 8.72875 11.553C8.72875 9.64719 7.2996 8.39932 5.05668 8.39932H1.40486Z" fill="white"/>
<path d="M34.1946 11.8117H26.9719L25.482 16H24.0771L29.7897 0H31.4496L37.1824 16H35.6925L34.2027 11.8117H34.1946ZM27.4375 10.5184H33.7371L30.9881 2.79977L30.5913 1.57459L30.2148 2.79977L27.4456 10.5184H27.4375Z" fill="white"/>
<path d="M53.5302 9.95122L48.3237 0H49.9391L53.6112 7.10607L54.2832 8.56268L54.9351 7.10607L58.6274 0H60.1375L54.9513 9.95122V16H53.5221V9.95122H53.5302Z" fill="white"/>
<path d="M74.9395 0H76.4293L83.733 12.3063L84.4698 13.7175V0H85.899V16H84.4091L77.1257 3.76631L76.3484 2.25978V16H74.9435V0H74.9395Z" fill="white"/>
<path d="M110.899 11.8117H103.676L102.186 16H100.781L106.49 0H108.15L113.882 16H112.393L110.903 11.8117H110.899ZM104.142 10.5184H110.437L107.688 2.79977L107.287 1.57459L106.911 2.79977L104.142 10.5184Z" fill="white"/>
<path d="M128.765 0H130.255L137.559 12.3063L138.296 13.7175V0H139.725V16H138.235L130.951 3.76631L130.174 2.25978V16H128.769V0H128.765Z" fill="white"/>
<path d="M155.129 14.6341L164.093 1.36585H155.129V0H165.753V1.36585L156.789 14.6341H165.753V16H155.129V14.6341Z" fill="white"/>
<path d="M190.016 11.8117H182.794L181.304 16H179.899L185.611 0H187.271L193.004 16H191.514L190.024 11.8117H190.016ZM183.259 10.5184H189.555L186.806 2.79977L186.405 1.57459L186.028 2.79977L183.259 10.5184Z" fill="white"/>
</g>
<defs>
<clipPath id="clip0_11220_33979">
<rect width="193" height="16" fill="white"/>
</clipPath>
</defs>
</svg>
