<svg width="48" height="48" viewBox="0 0 48 48" fill="none" xmlns="http://www.w3.org/2000/svg">
<path d="M28.001 38.002C28.001 34.8194 26.7367 31.7671 24.4863 29.5167C22.2358 27.2662 19.1836 26.002 16.001 26.002C12.8184 26.002 9.76613 27.2662 7.5157 29.5167C5.26526 31.7671 4.00098 34.8194 4.00098 38.002" stroke="white" stroke-width="3" stroke-linecap="round" stroke-linejoin="round"/>
<path d="M15.999 25.998C20.4173 25.998 23.999 22.4163 23.999 17.998C23.999 13.5798 20.4173 9.99805 15.999 9.99805C11.5807 9.99805 7.99902 13.5798 7.99902 17.998C7.99902 22.4163 11.5807 25.998 15.999 25.998Z" stroke="white" stroke-width="3" stroke-linecap="round" stroke-linejoin="round"/>
<path d="M43.999 37.998C43.999 34.8154 42.7347 31.7632 40.4843 29.5128C38.2339 27.2623 35.1816 25.998 31.999 25.998C34.1208 25.998 36.1556 25.1552 37.6559 23.6549C39.1562 22.1546 39.999 20.1198 39.999 17.998C39.999 15.8763 39.1562 13.8415 37.6559 12.3412C36.1556 10.8409 34.1208 9.99805 31.999 9.99805" stroke="white" stroke-width="3" stroke-linecap="round" stroke-linejoin="round"/>
</svg>
