<svg width="19" height="24" viewBox="0 0 19 24" fill="none" xmlns="http://www.w3.org/2000/svg">
<path d="M2.38881 5C1.08345 5 0.0130537 6.03846 0.0130537 7.33333V13.0897C0.678788 13.4103 1.37063 13.6154 2.06247 13.6154C2.88485 13.6154 3.32867 13.1282 3.32867 12.4615V9.74359H5.36504V12.4487C5.36504 13.5 4.6993 14.359 2.44103 14.359C1.0704 14.359 0 14.0641 0 14.0641V18.9744H3.48532C4.79068 18.9744 5.86107 17.9359 5.86107 16.641V5H2.38881Z" fill="url(#paint0_linear_11455_353)"/>
<path d="M8.94607 5C7.64071 5 6.57031 6.03846 6.57031 7.33333V10.3846C7.17078 9.88462 8.21507 9.5641 9.89899 9.64103C10.7997 9.67949 11.7657 9.92308 11.7657 9.92308V10.9103C11.2827 10.6667 10.7083 10.4487 9.96425 10.3974C8.685 10.3077 7.91483 10.9231 7.91483 12C7.91483 13.0897 8.685 13.7051 9.96425 13.6026C10.7083 13.5513 11.2827 13.3205 11.7657 13.0897V14.0769C11.7657 14.0769 10.8127 14.3205 9.89899 14.359C8.21507 14.4359 7.17078 14.1154 6.57031 13.6154V19H10.0556C11.361 19 12.4314 17.9615 12.4314 16.6667V5H8.94607Z" fill="url(#paint1_linear_11455_353)"/>
<path d="M15.528 5C14.2226 5 13.1522 6.03846 13.1522 7.33333V9.75641H16.507C16.5853 9.75641 16.6767 9.75641 16.742 9.76923C17.4991 9.80769 18.0604 10.1923 18.0604 10.859C18.0604 11.3846 17.6818 11.8333 16.9769 11.9231V11.9487C17.7471 12 18.3345 12.4231 18.3345 13.0769C18.3345 13.7821 17.6818 14.2436 16.8203 14.2436H13.1392V18.9872H16.6245C17.9298 18.9872 19.0002 17.9487 19.0002 16.6538V5H15.528Z" fill="url(#paint2_linear_11455_353)"/>
<path d="M14.312 13.5003H15.6832C15.7224 13.5003 15.8138 13.4875 15.8529 13.4875C16.1141 13.4362 16.3361 13.2054 16.3361 12.8849C16.3361 12.5772 16.1141 12.3465 15.8529 12.2824C15.8138 12.2695 15.7354 12.2695 15.6832 12.2695H14.312V13.5003Z" fill="url(#paint3_linear_11455_353)"/>
<path d="M16.1664 11.0133C16.1664 10.7056 15.9444 10.5005 15.6832 10.462C15.6571 10.462 15.5918 10.4492 15.5526 10.4492H14.312V11.5774H15.5526C15.5918 11.5774 15.6701 11.5774 15.6832 11.5646C15.9444 11.5261 16.1664 11.321 16.1664 11.0133Z" fill="url(#paint4_linear_11455_353)"/>
<defs>
<linearGradient id="paint0_linear_11455_353" x1="0.0103124" y1="11.9879" x2="5.96707" y2="11.9879" gradientUnits="userSpaceOnUse">
<stop stop-color="#1F286F"/>
<stop offset="0.475" stop-color="#004E94"/>
<stop offset="0.826" stop-color="#0066B1"/>
<stop offset="1" stop-color="#006FBC"/>
</linearGradient>
<linearGradient id="paint1_linear_11455_353" x1="6.5365" y1="11.9879" x2="12.322" y2="11.9879" gradientUnits="userSpaceOnUse">
<stop stop-color="#6C2C2F"/>
<stop offset="0.173" stop-color="#882730"/>
<stop offset="0.573" stop-color="#BE1833"/>
<stop offset="0.859" stop-color="#DC0436"/>
<stop offset="1" stop-color="#E60039"/>
</linearGradient>
<linearGradient id="paint2_linear_11455_353" x1="13.1499" y1="11.9879" x2="19.0163" y2="11.9879" gradientUnits="userSpaceOnUse">
<stop stop-color="#007940"/>
<stop offset="0.229" stop-color="#00873F"/>
<stop offset="0.743" stop-color="#40A737"/>
<stop offset="1" stop-color="#5CB531"/>
</linearGradient>
<linearGradient id="paint3_linear_11455_353" x1="13.1476" y1="12.8865" x2="19.0159" y2="12.8865" gradientUnits="userSpaceOnUse">
<stop stop-color="#007940"/>
<stop offset="0.229" stop-color="#00873F"/>
<stop offset="0.743" stop-color="#40A737"/>
<stop offset="1" stop-color="#5CB531"/>
</linearGradient>
<linearGradient id="paint4_linear_11455_353" x1="13.1474" y1="11.0117" x2="19.0159" y2="11.0117" gradientUnits="userSpaceOnUse">
<stop stop-color="#007940"/>
<stop offset="0.229" stop-color="#00873F"/>
<stop offset="0.743" stop-color="#40A737"/>
<stop offset="1" stop-color="#5CB531"/>
</linearGradient>
</defs>
</svg>
