<svg width="46" height="24" viewBox="0 0 46 24" fill="none" xmlns="http://www.w3.org/2000/svg">
<g clip-path="url(#clip0_11455_3423)">
<path d="M7.7779 6.46938C7.20197 6.07345 6.45043 5.875 5.52327 5.875H1.93383C1.64961 5.875 1.49258 6.01715 1.46275 6.3011L0.00457696 15.454C-0.0105773 15.5439 0.011914 15.6261 0.0718455 15.7009C0.131434 15.7758 0.206383 15.8131 0.296143 15.8131H2.0011C2.30014 15.8131 2.46451 15.6713 2.49468 15.3868L2.89843 12.9193C2.91317 12.7997 2.96577 12.7025 3.05553 12.6276C3.14522 12.5528 3.2574 12.5039 3.39201 12.4815C3.52661 12.4593 3.65354 12.4481 3.7734 12.4481C3.89292 12.4481 4.03493 12.4557 4.19971 12.4705C4.36407 12.4855 4.46885 12.4928 4.51377 12.4928C5.79989 12.4928 6.8094 12.1304 7.54236 11.4048C8.27498 10.6795 8.6417 9.67379 8.6417 8.38739C8.6417 7.50501 8.35356 6.86565 7.7779 6.4691V6.46938ZM5.92716 9.21772C5.85214 9.74126 5.65795 10.0851 5.34389 10.2497C5.02977 10.4144 4.5811 10.4963 3.9979 10.4963L3.25754 10.5188L3.639 8.11831C3.66876 7.95395 3.76593 7.87166 3.93057 7.87166H4.35694C4.95489 7.87166 5.38887 7.95786 5.65809 8.12956C5.92716 8.30167 6.01692 8.66455 5.92716 9.21772Z" fill="#003087"/>
<path d="M45.6619 5.875H44.0019C43.837 5.875 43.7399 5.95729 43.7103 6.12179L42.252 15.4544L42.2295 15.4992C42.2295 15.5744 42.2595 15.6451 42.3194 15.7124C42.3789 15.7795 42.454 15.8133 42.5437 15.8133H44.0245C44.3082 15.8133 44.4653 15.6715 44.4956 15.3871L45.9538 6.21155V6.18926C45.9537 5.97991 45.8562 5.87521 45.6619 5.87521V5.875Z" fill="#009CDE"/>
<path d="M25.6076 9.48789C25.6076 9.41328 25.5776 9.3421 25.5181 9.2749C25.4581 9.20763 25.3908 9.17383 25.3161 9.17383H23.5888C23.4239 9.17383 23.2894 9.24898 23.1849 9.39812L20.8069 12.898L19.8199 9.53287C19.7447 9.29369 19.5803 9.17383 19.3263 9.17383H17.6435C17.5686 9.17383 17.5013 9.20757 17.4418 9.2749C17.3818 9.3421 17.3521 9.41335 17.3521 9.48789C17.3521 9.51806 17.4979 9.95904 17.7895 10.8115C18.081 11.6641 18.3952 12.584 18.7317 13.5711C19.0683 14.5581 19.2438 15.0818 19.2589 15.1413C18.0324 16.8165 17.4194 17.7139 17.4194 17.8334C17.4194 18.028 17.5166 18.1251 17.711 18.1251H19.4384C19.6029 18.1251 19.7374 18.0505 19.8423 17.9008L25.563 9.64478C25.5927 9.61509 25.6076 9.56297 25.6076 9.48782V9.48789Z" fill="#003087"/>
<path d="M41.6846 9.17468H39.9795C39.77 9.17468 39.6433 9.42146 39.5984 9.91504C39.2091 9.3171 38.4991 9.01758 37.4669 9.01758C36.3901 9.01758 35.4739 9.42146 34.7188 10.2291C33.9634 11.0368 33.5859 11.9867 33.5859 13.0783C33.5859 13.9609 33.8438 14.6638 34.3598 15.187C34.8757 15.7108 35.5674 15.9722 36.4352 15.9722C36.8687 15.9722 37.3099 15.8823 37.7586 15.703C38.2073 15.5236 38.5585 15.2844 38.8131 14.9851C38.8131 15.0002 38.7979 15.0673 38.7683 15.1869C38.7381 15.3067 38.7234 15.3967 38.7234 15.4561C38.7234 15.6957 38.8203 15.815 39.0151 15.815H40.5632C40.8469 15.815 41.0117 15.6732 41.0564 15.3888L41.9763 9.53351C41.991 9.44375 41.9687 9.3616 41.909 9.28672C41.8489 9.21218 41.7743 9.17468 41.6846 9.17468ZM38.757 13.5942C38.3756 13.9682 37.9157 14.1551 37.3773 14.1551C36.9434 14.1551 36.5922 14.0356 36.3229 13.7962C36.0535 13.5574 35.9189 13.2283 35.9189 12.809C35.9189 12.2561 36.1059 11.7884 36.4799 11.407C36.8534 11.0256 37.3175 10.8349 37.8708 10.8349C38.2893 10.8349 38.637 10.9584 38.9139 11.205C39.1904 11.4518 39.3291 11.7922 39.3291 12.2259C39.3291 12.7643 39.1383 13.2205 38.757 13.5942Z" fill="#009CDE"/>
<path d="M16.2047 9.17468H14.4998C14.2901 9.17468 14.1632 9.42146 14.1183 9.91504C13.7145 9.3171 13.004 9.01758 11.987 9.01758C10.9102 9.01758 9.994 9.42146 9.23883 10.2291C8.48344 11.0368 8.10596 11.9867 8.10596 13.0783C8.10596 13.9609 8.36399 14.6638 8.87999 15.187C9.39599 15.7108 10.0875 15.9722 10.9551 15.9722C11.3737 15.9722 11.8076 15.8823 12.2562 15.703C12.7049 15.5236 13.0639 15.2844 13.3331 14.9851C13.2731 15.1645 13.2433 15.3216 13.2433 15.4561C13.2433 15.6957 13.3405 15.815 13.535 15.815H15.0829C15.3668 15.815 15.5316 15.6732 15.5765 15.3888L16.4962 9.53351C16.511 9.44375 16.4885 9.3616 16.429 9.28672C16.3691 9.21218 16.2944 9.17468 16.2047 9.17468ZM13.2771 13.6054C12.8956 13.9723 12.428 14.1551 11.875 14.1551C11.441 14.1551 11.0933 14.0356 10.8317 13.7962C10.5699 13.5574 10.4391 13.2283 10.4391 12.809C10.4391 12.2561 10.626 11.7884 11 11.407C11.3737 11.0256 11.8373 10.8349 12.3909 10.8349C12.8095 10.8349 13.1572 10.9584 13.4342 11.2051C13.7106 11.4519 13.8492 11.7923 13.8492 12.226C13.8492 12.7793 13.6585 13.2393 13.2771 13.6054Z" fill="#003087"/>
<path d="M33.2663 6.46938C32.6904 6.07345 31.939 5.875 31.0117 5.875H27.4446C27.1454 5.875 26.9807 6.01715 26.9511 6.3011L25.4929 15.454C25.4777 15.544 25.5001 15.6262 25.5601 15.7009C25.6194 15.7758 25.6947 15.8131 25.7844 15.8131H27.6239C27.8034 15.8131 27.923 15.716 27.9829 15.5215L28.3868 12.9193C28.4016 12.7997 28.454 12.7025 28.5438 12.6276C28.6336 12.5528 28.7456 12.5039 28.8804 12.4815C29.0149 12.4593 29.1418 12.4481 29.2618 12.4481C29.3813 12.4481 29.5233 12.4557 29.6879 12.4705C29.8524 12.4855 29.9574 12.4928 30.0019 12.4928C31.2883 12.4928 32.2976 12.1304 33.0306 11.4048C33.7635 10.6795 34.1298 9.67379 34.1298 8.38739C34.13 7.50508 33.8419 6.86572 33.2663 6.46917V6.46938ZM30.9668 10.1599C30.6377 10.3842 30.1441 10.4963 29.4862 10.4963L28.7682 10.5188L29.1496 8.11831C29.1793 7.95395 29.2764 7.87166 29.4412 7.87166H29.8449C30.1739 7.87166 30.4356 7.88661 30.6303 7.91644C30.8244 7.94661 31.0117 8.0398 31.1912 8.19683C31.3707 8.35393 31.4604 8.58206 31.4604 8.88117C31.4604 9.50929 31.2957 9.93546 30.9668 10.1599Z" fill="#009CDE"/>
</g>
<defs>
<clipPath id="clip0_11455_3423">
<rect width="45.9537" height="24" rx="3.42857" fill="white"/>
</clipPath>
</defs>
</svg>
