<svg width="39" height="24" viewBox="0 0 39 24" fill="none" xmlns="http://www.w3.org/2000/svg">
<path d="M28.3507 6.49154C27.4443 6.15995 26.4863 5.99355 25.5217 6.00019C22.4021 6.00019 20.199 7.57798 20.1834 9.84287C20.1639 11.5068 21.749 12.4445 22.9481 13.0004C24.1783 13.572 24.5897 13.9322 24.5858 14.4431C24.578 15.2203 23.6032 15.5726 22.6965 15.5726C21.4507 15.5726 20.7702 15.3984 19.7232 14.9619L19.3352 14.7798L18.8927 17.3873C19.6511 17.7044 21.0178 17.9765 22.4294 18C25.7459 18 27.914 16.432 27.9393 14.0222C27.9666 12.6931 27.1087 11.6888 25.3033 10.8588C24.2056 10.3205 23.5252 9.96032 23.5252 9.41417C23.5252 8.93065 24.1081 8.41386 25.3267 8.41386C26.1377 8.39415 26.9437 8.54693 27.6917 8.86214L27.9842 8.99329L28.4267 6.47392L28.3507 6.49154ZM36.4459 6.21161H34.0088C33.2503 6.21161 32.6791 6.42106 32.3476 7.17668L27.6605 17.8375H30.977L31.6399 16.0894L35.6874 16.0933C35.783 16.5025 36.0754 17.8375 36.0754 17.8375H39L36.4459 6.21161ZM15.6971 6.11373H18.8576L16.8806 17.7455H13.724L15.6971 6.10981V6.11373ZM7.67405 12.5247L8.0016 14.1397L11.0899 6.21161H14.4376L9.46388 17.8219H6.12403L3.39444 7.99102C3.35023 7.82892 3.24641 7.6897 3.10393 7.60147C2.12011 7.09121 1.07769 6.70399 0 6.44847L0.0428935 6.20378H5.12968C5.81988 6.23118 6.37554 6.44847 6.56077 7.18843L7.6721 12.5306L7.67405 12.5247ZM32.5465 13.711L33.806 10.4575C33.7904 10.4928 34.0653 9.7861 34.2252 9.34957L34.4416 10.3538L35.1727 13.709H32.5445L32.5465 13.711Z" fill="#1434CB"/>
</svg>
